/* XPM */
static char * xpm[] = {
"128 128 14 1",
"A c #964838",
"B c #904536",
"C c #8b4233",
"D c #853f31",
"E c #7f3b2f",
"F c #79382d",
"G c #74352a",
"H c #6e3228",
"m c #aaafa5",
"n c #a0a59b",
"o c #b6bbb1",
"s c #371e16",
"h c #dc8264",
"p c #55372d",
"nnnnnnnnnnnnnnnnnnnnnnnnnnnnnnnnnnnnnnnnnnnnnnnnnnnnnnnnnnnnnnnnnnnnnnnnnnnnnnnnnnnnnnnnnnnnnnnnnnnnnnnnnnnnnnnnnnnnnnnnnnnnnnnn",
"mssspsssssssssssssssssssmsssssssssssssssssssssssmssssssssssspsssssssssssmssAssssssssssssssssssssmspssssssssssssAssssssssmssspsss",
"mAAAABAAAABAAAABAAAABAAAmBBBBCBBBpCBBABCBBBBCBBBmCCCCDCCCCDCCCCDCCCCDCCCmDDDDEDDDDEDDDDEDDDDEDDCmEEEEFEEEEFEEEEFEEEEFEEEmFFFFGFF",
"mAAAABAAAABAAAABAAAABAAAmABBBCBBBBCBBBBCBBBBCBBBmCCCCDCCCBDCCCBDCCCCCCCCmDDDDEDDDDpDDDDEDDDDEDDDmEEEEFEEEEEEEEEFEEEEFEEEmEFFFGFF",
"mAAAABAAAABAAAABAAAABAAAmBBBBCBBBBCBBBBCBBBBCBBBmCCCBDCCCCDBCCCDCCCCDCCCmCDDDEDDDDEDDDDEDDDDEDDDmEEEEFEEEEFEDEEFEEEEFEEEmFFFFGFF",
"mAAAABAAAABAAAABAAApBAAAmBBBBCBBBBCBBBBCBBBBCBBBmCCCCDCCCCDCCCCDCCCCpCCCmDDDDECDDDEDDDDEDDDDEDDDmEEEEFEEEEFEEEEFEEEEFEEEmFFFFGFF",
"mAAAABAAAABAAApBAAAABAAAmBBBBCBBBBCBBBBCBBBBCBBBmCCCCDCCCCDCCCCDCCCBDCCCmpDDDEDDDDEDDDDDDDDDEDDDmEEEEFEEpDFEEEEFEEEEFEEpmFFFFFFF",
"mAAAABAAAABAAAABAAAABAAAmBBBBCBBBBCBpBBCBBBBCBBBmCCCCDCCCCDCCCCDCCCCDCCCmDDDDEpDDDEDDDDEDDDDEDDDmEDEEFEEDEFEEEEFEEEEFEEEmFFFFGFF",
"mAAAABAAAApAAAAAAAAABAAAmABBBCBBBBCBBBBCBBBBCBBBmCCCCDCCpCDCCCCDCCCCDCCCmDDDDEDDDDEDDDDEDDDDEDDDmpEEEFEEEEFEEEEFDEEEFEEEmFFFFGFF",
"mAAAABAAAABAAAABAAAABAAAmABBBCBBBBBBBBBCBBBBCBBBmCCCCDCCCpDCCCCDCCCCDCCCmDDDDEDDDDDDDDDEDDDDEDDDmEEDEFEEEEFEEEEFEEEEFEEEmFFFFGFF",
"mAAhApAAAhAAAAAhAAAAAhAAmBBhBBBABBABBBBhBBBBBBBBmCChCCCBCCBCCCChCCCCChCCmDDhDDDDDhDDDDDDDDDDDDDDmEEhEEEEEhEEEEEDEEEEEhEEmFFhFFFF",
"mAAAAAAAApAAAAAAAApAAAAAmBBBBBBBBBBBBBBBBBBBpBBBmCCCCCCCCCCCCCCCCCCCBCCCmDDDDDDDDDDDDDDDDDDDDDDDmEEEEEEEEEEEEEEEEEEEEEEEmFFFFFFF",
"oooooooooooooooooooooooooooooooooooooooooooooooooooooooooooooooooooooooooooooooooooooooooooooooooooooooooooooooooooooooooooooooo",
"ssssssssssspmsssssssssssssssssssssssmsssssssssssssssssssssssmsssssssssssssssssssssssmsssssssssssssssssssssssmssssssssAAsssssssss",
"AAAAAAAABAAAmBBBBCBBBBCBBBBCBBBpCBpBmCCBCDCCCCDpCCCDCCCCDCCCmDDDDEDDDDDDDDDECDDDEpDDmEEEEFEEEEFEEEEFEEEEFEEEmFFFFGFFFpGFFpFGFFFF",
"AAABAAAABAAAmBBBApBBBBCBBBBCBBBBCBBBmCCCCDCCCCDCCCCDCCCCDCCCmCDDDEDDDDEDDDDEDDDDEDDDmEEEEFEEEEFEEDEFEEEEFEEpmFFFFGFFFFGFFFFGFEFF",
"AAAAAAAABAAAmBBBBpBBBBBBBBBCBBBBCBBBmCCCCDCCCCDCCBCDCCCCDCCCmDDDDEDDDDEDDDDEpDDCEDDDmEEEEFEEEEFEDEEFEEEEFEEEmFFpFGEFFFGFFFFGFFFF",
"AAABAAApBAAAmBBBBCABBBCBBBBCBBBBBpBBmBpCCDCCCpDCCCCDCCCCDCCCmDDDDEDDDpEDDDDEDDDDDpDDmEEEEFEEEEFEEEEFEEEDFEEEmFFFFGFFFFGFFFFGFFFF",
"AAABAAAABAAAmBBBBBBBBBBBBBBCABBBCBBBmCCCCDCCCCDCCCCDCCCCDCCCmDDDDEDpDDEDDDDEDDDDEDDDmEEEEFEEEEFEEEpEEEEEFEEEmFFFFGFFFFGFFFEGFFFF",
"AAABAAAABAAAmBBBBCBBpBCBBBBCBBBBCBBBmCCCCDCCCCDCCCCDCCCCDCCBmDDDDEDDDDEDDDDEDDDDEDDDmEEEEFEEEEFEEEEFEEEEFEEEmFFFFGFFFFGFFFFGpFFF",
"ApABpAAABAAAmBBBBCBBBBCBBBBCBBBBCBBBmCBCCDCCCCDCCCCDCCCCDCCCmDDDDEDDDDEDDDDEDDDDEDDDmEEEEFEEEEFEEEEFEEEEFDEEmFFFFpFFFFGFpFFGFFFF",
"AAABAAAABAAAmpBBBCBBBBCBBBBCBBBBCBBBmCCCCDCCCCDCCCCDCCCCDCCCmDDDDEDDDDEDDDDEDDDDEDCDmEEEEFEEEEFEEEEFEEEEFEEDmFFFFGFFFFGFFFFGFFFF",
"AAAhAAAAAhAAmBBBBBBBBhBBBBBBBBBBBBBBmCChCCCCChCCCCChCCCCCCCCmDDDDDDDDDCDDDDhDDDDDhDDmEEhEEEEEEEDEpEhEEEEEEEEmFFFFFFFFhFpFFFhFFFF",
"AAAAAAAAAAAAmBBBBBBBBBBBBBBBBBpBBBBBmCCCCCCCCCCCCCCCCCCCCCCCmDDDDDDDDDDpDDDDDDDDDDDDmEEEEEEEEEEpEEEEEEEEEEEEmFFFFFFFFFFFFFFFFFFF",
"mmmmmmmmmmmmmmmmmmmmmmmmmmmmmmmmmmmmmmmmmmmmmmmmmmmmmmmmmmmmmmmmmmmmmmmmmmmmmmmmmmmmmmmmmmmmmmmmmmmmmmmmmmmmmmmmmmmmmmmmmmmmmmmm",
"mssssssssAssssssssssssssmsssssssssssssssssssssssmssssspAsssssssssssssspsmAssssspssssssssssssssssmpsssssssssspssssssAAsssmsssssss",
"mCCCCDCCCCpCCCCDpCCCDCCCmDDDDEDDDDECDpDEDDDDEDCDmEEEEFEDEEFEEEEFEEEEFEEEmFFFFGFFFFGFFFFGFFFFGFFFmGGGGHGGGGHGGGGHGGGGHGGGmHHHHHHH",
"mCCCCDCCCCDCCCCDCCCCDCCCmDDDDEDpDDEDDDDEDDDDEDDDmEEEEFEEEEFEEEEFEEEEFEDEmFFFFGFFFFGFFFFGFFEFGFFFmGGGFHGGGGHGGGGHGGGGHGGGmHHHHHHH",
"mCCCCDCCCCCCCCCDCCCCDCCCmDDDDEDDDDEDDDDEDDDDEpDDmEEEpFEEEEFEEEEFEpDEFEEEmFFFFGFEFEGFFFFGFFFFGFFFmGGGGHGGGGHGGGGHGGGGHGGGmHHHHHHH",
"mCCCCDCCCCDCCCCDCCCCDCCCmDDDDEDDDDEDDDCEDDDDEDDDmEEEEFEEEEFEEEpFEEDEFEEEmFFFFGFFFFpFFFFGFFFFGFFFmGGGGHGGGGHGGGFHGGGGHGGGmHHHHHHH",
"mCCCCDCCCCDBCCCDCCCCDCCCmDDDDEDDDDEDDDDEDDDDEDDDmEEEEFEEDEFEEEEFEEEEFEEEmFEEFGFFFFpFFFFGFFFFGFFFmGGGGHGGGGHGGGGHGGGGHGpGmHHHHHHH",
"mBCCCDCBCCDCCCCDCCCCDCCCmDDDDEDDCDEDDDDDDDDCEDDDmEDEEFEEEEFEEEpFEEEEFEEEmFFFFGFFFFGFFFFGFFFFGFFFmGGGGHGGGGHGGGGHGGGGHGGpmHHHHHHH",
"mCCCCDCCCCDCCCCDCCCCDCCCmDDDDEDDDDEDDDDEDDDDEDDDmEEEEpEEEEFEEDEFEEEEFEEEmFEFFGFFFFGFEFFGFFFEGFFFmGGGGHGGGFpGGGGHGGGGHGGGmHHHHpHH",
"mCCCCDCCCCDCCCCDCCCCDCCCmDDDDEDDDDEpDDDECDDDEDDDmEEEDFEEEEEEEEEFEpEEFEEEmFFFFGFFFFGFFFFGFFFFGFFFmGGGGHGGpGHGGGGHpGGGHGpGmHHHHHHH",
"mCBhCCCCCCCCCCChCCCCChCCmDDhDDDDDDDDDDDhDDDDChDDmEEEEEEEEhEEEEEEEEEEEhEEmFFhFFFFFhFFFFFhFFFFFFFFmGGpGGGGGhGGGGGGGGGGGhGGmHHHHHHH",
"mCCCCCCCCCCCCCCCCCCCCCCCmDDDDDDDDDDDDDDDDDDDDDDpmDEEpEEEEEEEEEEEEEEEEEEDmFFFFFFFFFFFpFFFFpFFFFFFmFGGpGGGGGGGGGGGGGGGFGGGmHHHHHHH",
"nnnnnnnnnnnnnnnnnnnnnnnnnnnnnnnnnnnnnnnnnnnnnnnnnnnnnnnnnnnnnnnnnnnnnnnnnnnnnnnnnnnnnnnnnnnnnnnnnnnnnnnnnnnnnnnnnnnnnnnnnnnnnnnn",
"ssssssssssssmsssssssssssssssssssssssmssspsssssssssssssssssssmsssssssssssssssssssssssmsssssssssssssssssssssssmsssssssssssssssssss",
"CCCDCCCCDCCCmDDDDEDDDDEDDDDEDDDDEDDDmEEEEFEpEEFEEEEFEEEpFEEEmFFFFGFFFEGFFFFGFFFFGFFFmGGGGHGGGGHGGGGHGGGGHGGGmHHHHHHHHHHHHHHHHHHH",
"CCCCCCCCDCCCmDDDCEDDDDEDDDDEDDDDEDDDmEEEEFEEEEFEEEEFEEEEFEEEmFFFFGFFFFGFFEFGFFFFGFFFmGGGGHGGGGHGGGGHGGGGHGGGmHHHHHHHHHHHHHHHHHHH",
"CCCDCCCCDCCCmDDDDEDDDDEDDDDEDDDDEDDDmEEEEFEEEEFEEEEFEEEEFEEEmFFFFGFFFFGFFFFGFFFpGFFFmGGGGHGGGGHFGGGHGGGGGpGGmHHHHHHHHHHHHHHHHHHH",
"CCCDCCCCDCBCmDDppEDDDDEDDDDEDDDDEDDDmEEpEFEEEEFEEEEFEDEEFEEEmFFFFGFEFFGFFFFGFFFFGFFFmGGGFHGGGGHGGGGHGGGGHGGGmHHHHHHHHHHHHHHHGHHH",
"CCCDCCCCDCBCmDDDDEDDDDEDCDDEDCDDEDDDmEEEEFEEEEFEEEEFEEEEFDEpmFFFpGFFFFGFFFFGFpEFGpFFmGGGGHGGGGHGGGGHFGGGHGGGmHHHHHHHHHHHHHHHHHHH",
"CpBDCCBCpCCCmDDDDEDDDDEDDDDEDDDDEDDDmEEDEFEEEEFEEEEFEEEEFEEEmFFFFGFFFFGFFFFGEFFFGFFFmGGGGHGGGFHGGGGGGGGGHGGGmHGHHpHHHHHHHHHHHHHH",
"CCCDCCCCDCCCmCDDDEDDDDEDDDDEDDDDEDDDmEEEEFEEEEFEEpEFEEEEFEEEmFFEFGFFFFGFFFFGFFFFGFFpmGGGGHGGGGHGGpGHGGGGHGGGmpHHpHHHHHHHHHHHHHHH",
"CCBDCpCCDCCCmDDDDEDDDDDDDDDEDDDDEDDDmEEDEFEEEEFEEEEEEEEEFEEEmFFFFFFpFFGFFFFGFFFFGFFFmGGGGHGGGGHGGGGHGGGGHGGGmHHHHHHHHGHGHHHHHHHH",
"CCChCCpCChpCmDDDDDDDDhDDDDDhDDDCDhpDmpEhEEDEEhEEEEDhEEEEEEEEmFFhEFFEFhFFFFFFFFFFFFFFmGGhpGGGGGGFGGGhGGGGGhGGmHHhHHHHHhHGHHHHHHHH",
"CCCCCCCCCCCCmDDDDDDDDDDDDDDDDDDDDDDDmEEEEEEEEEEEEEEEEEEEEEEEmFFFFFFFFFFFFFFFFFFFEFFFmGGGGGGGGGFGGGGGGGGGGGGGmHHHHHHHHGHHHHHHHHHH",
"oooooooooooooooooooooooooooooooooooooooooooooooooooooooooooooooooooooooooooooooooooooooooooooooooooooooooooooooooooooooooooooooo",
"mssssspsspssssssssAsssssmssssssssssAssssssssssssmsssssssssspssssssssssssmsssssssssssssssspsssspsmsspsssssssssssssssAssssmsssssss",
"mEEEEFEDEEFEEEEFEEEEFEEDmFFFFGFFFFGFFFFGFFpFGFFFmGGGGHGGGGHGGGGHGGGGHGGGmHHHHHHHHHHHHHHHHHHHHHHHmAAAABAAAABAAAABAAAABAAAmBBBBCBB",
"mEEEEFEEEEFEEEEFEEEDFEEEmFFFFGFFFFGpFEFGFFFEGFFFmGGGGHGGGGHGGGGHGGGGHGGGmHHHHpHHHHHHHHHHHHHHHHHHmAAAABAAAAAAAAABpAAABAAAmBBBBCBB",
"mEEDEFEEEEFEEEEFEEDEFEEEmFFFFGFFFFGFFFpGEFFFGFFEmGGGGHGGGGHGGGGHGGGGHGGGmHHHHHGHHHHHHHHHHHHHHHHHmAAAABAAAABAAAABAAAABAAAmBBBBCBB",
"mEEEEFEEEEFpEEEFEDEEFEEEmFFFFGFFFFGFEFFGFFFFGFFFmGGGGHGGGGHGGGGHGGGGHGFGmHHHHHHHHHHHGHHHHHHHHHHHmAAAABAAAABAAAABAAAABAAAmBBBBCBB",
"mEEEEFEEEEFEEEEFEEEEFEEEmFFFFGFFFFGFFFFGFFFFGFFFmGGGGHGFGGHGGGGHGGGGHGGGmHHHHHHHHHHHHHHGHHGHHHHHmAAAABAAAABAAAABAAAABAAAmBBBBCBp",
"mEEDEpEEEEFEEEEFEEEEFEEEmFFFFpEFFFGFFFFGFFFFGFFFmGGGGHGGGGHGGGGHGGGGHGGGmHHHHHHHHHHHHHHHHHHHHHHHmAAAABAAAABAAAABAAAABAAAmBBBBCBB",
"mEEEEpEEEEFEEEEFEEEEFEEEmFEFFGFFFFGFFFFFFFpFGFFFmGGGGHGGGGHGGGGHGGGGHGGGmHHHHpHHpHHHHHHHHHHHHHHHmpAAABAAAABAAAABAAAABAAAmBBBBCBB",
"mEEEDFDEEEFEEEEFEEEEpEEEmFFFFGFFFFGFFFFGFFFFGFFFmGGGGHGGGGHFGGGHGGGGHGGGmHHHHHHHHHHHHHHHHHHpHHHHmAAAAAAAAABApAABAAAABAAAmBBBBCBp",
"mEphDEEEEhEEEEEhEEEEEEEEmFFhFFFFFhFFFFFhFFFFFFFFmGGpFGFGGhGGGGGpGGGGGhGGmHHHHHHHHhHHHHHhHHHHHhHHmAAhAAAAAhAAAAAhAAAAAhAAmBBBBBBp",
"mEEEEEEEEEEEEEEEEEEEEDEEmFFFFEFFFFFFFpFFFFFFFFEFmGFGGGGGGGGGGGGGGGGGGFGGmGHHHHHHHGHHHHHHHHHHHHHHmAAAAAAAAAAAAAAAAAAAAAAAmBBBBBBB",
"mmmmmmmmmmmmmmmmmmmmmmmmmmmmmmmmmmmmmmmmmmmmmmmmmmmmmmmmmmmmmmmmmmmmmmmmmmmmmmmmmmmmmmmmmmmmmmmmmmmmmmmmmmmmmmmmmmmmmmmmmmmmmmmm",
"ssssssssssssmsssssssssAsAsssssssssssmsAssssssssssssssAssssssmsssssssssssssssssssssssmspsssssssssssssssssssssmssssAssspssssssssss",
"EEEFEEEEFEEEmFFFFFFFFFGFFFFGFFFFGFFFmGGGGHGGGGHGGGGHGpGGHGGGmHHHHHHHHHHHHHHGHHHHHHHHmAAAABAAAAAAAAABAAAABAAAmBABBCBBBBCBBBBCBBBB",
"EEEFEEEEFEEEmFFFFGFFFFpFFFFGFpFEGFFFmGGGGHGGGGHGGGGpGGGGHGGGmHHHHHHHHHHHHHHHHHHHHHHHmAAAABAAAABAAAABAAAABAAAmBABBCBBBBCBBBBCBBBB",
"EEEFEEEEFpEEmFFFFGFFFFGFFFFGFFFFGFEFmGGGGHpGGpHGGGGHGGGGHGGGmHHHHHHHHHHHHHGHHHHHHHHHmAAAABAAAABAAAABAAAABAAAmBBBBCBBBBCBBBBCBBBB",
"EEEFEEEEFEEEmFpFFGFFFFGFFFFGFFFEGFFFmGGGGHGGGGHGGGGHGGGGHGGGmHHHHHHHHHHHHHHHHHHHpHHHmAAAABAAAABAAAABAAAABAAAmBBBBCBBBBCBBBBCBBBB",
"EEEFEEEEFEEEmFFFFGFFFFGFFFFGFFFFGFEFmGGGGHGGGGpGpGGHGGGGHGGGmHHHHHHHHHHHHHHHHHHHHHHHmAAAABAAAABAAAABAAAABAAAmBBBBCBBBBCBBBBBBABB",
"EpEFEEEEFEEEmFFFFGFFFFpFFFFGFpFFGFFFmGGGGHGGGGHGGGGHpGGGHGGGmHHHHHHHHpHHHHHHHHHHHHHHmAAAABAAAABAAAABAAAABAAAmBBBBCBBBBpBBBBCBBBB",
"EEEFEEEEFEEEmFFFFGFFFFGFFFFGFFFFGFFFmGFGFHGGGGHGGGGHGGGGHGGGmHHHHHHHHHHHHHHHHHHpHHHHmAAAABAAAABAAAABAAAABAAAmBBBBCBBBBpBBBBCBBBA",
"EEEFpEEEpEEEmFFFFGFFFFGFFFFGFFFFGFFpmFGGGHGGGGHGGGGHGGGGppGGmHHHHHpHHHHHHHHHHHHHHHHHmAAAABAAAABAAAABAAAABAAAmBBBBCBBBBCBBBBCBBBB",
"EEEhpEEEEhEEmpFhFFFFFhFFFFFFpFFFFFFFmGGGGGGGGGGGGGGGGGGGGGGGmHHHHHHHHhHHHHHhHHHHHhHHmAAhpAAAAApAAAAAAAAAAApAmBBBABBBBBBBBBBhBBBB",
"EEEEEEEEEEEEmFFFFFFFFFFFFFFFFFFpFFFFmGpGFGGGGGGGGGGGGGGGGFGGmHGHHHHHHHHHHGHHHHHHHHHHmAAAAAAAAAAAApAAAAAAAAAAmpBBBBBBBBBBBBBBBBBB",
"nnnnnnnnnnnnnnnnnnnnnnnnnnnnnnnnnnnnnnnnnnnnnnnnnnnnnnnnnnnnnnnnnnnnnnnnnnnnnnnnnnnnnnnnnnnnnnnnnnnnnnnnnnnnnnnnnnnnnnnnnnnnnnnn",
"mssssssAssssssssssssssssmsAsssssssssssssssssAsssmssssssspsssssssssssssssmsssssssssssssssssAsssssmsssssAsspssssssssssssAsmsssssss",
"mGGGGHGGGGHGGGGHGGGGHGGGmGHHHHGHHHHHHHHHHHHHHHHHmAAApBAAAABAAAABAAAABAAAmBBBBCBBBBCBBABCBBBBCBBBmCCCCDCCCCDCCCCDpCCCDCCCmDDDDEDD",
"mGGGGHGGGGHGGGGHGGGGHGGGmHHHHHHHHHHHpHHHHpHHHHHHmAAAABAAAABAAAABApAABAAAmBBBBCpBBBCBBBBCBBBBCBBBmBCCBDCCCCDCpCCDCCCCDCCpmDDDDEpD",
"mGGGGHGGGGHGGGGHGGGGHGGGmHHpHHHHHHHHHHHHHHHHHHHHmAAAABAAAABAAAABAAApBAAAmpBBBCBBBBCBBBBCBBBBCABBmCCCCCCCCpDCCCCDCCCCDCCCmDDDDEDD",
"mGGFGHGGGGHGGGGHGGGGHGGGmpHHHHHHHHHHHGHHHHHHHHGHmAAAABAAAABAAAABAAAABApAmBBBBCBBBBCBBBBCBBBBCBBBmCCCCDCCCCDCCCCDCCCCDCCBmDDDDEDD",
"mGGGGHGGGGpGGGGHGGGGHGGGmHHHHGHHHHHHHHHHHHHHHHHHmAAAABAAAABAAAABAAAABAAAmBBBBCBBBBCBBBpCBBBBCBBpmCCCCDCCCCCCCCCDCCCCDCCCmDDDDEDD",
"mGGGGHGGGGHGGGGHGGGGHGGGmHHHHHHHHHHHHHHGHHHHHpHHmAAAABAAAABAAAABAAAABAAAmBBBBCBBBBCBBBBCBBBBCBBBmCCCCDCCCCDBCCCDCCCCDCCCmDCDDEDD",
"mGGGGHFGGGHGGGGHGGGFHGGGmHHHHHHGHGHHHHHHHHHHHHHHmAAApBAAAABAAAABAAAABAAAmBBABCBBBBCBBBBCBBBBCBpBmCBCCDCCCCDCCCCDCCCCDCCCmDpDDpDD",
"mGGGGHGGGGHGGGGHGGGGHGGGmHHHHHHHHHHHHHHHHHHHHHHHmAAAABAAAABAAAABAAAAAAAAmBBBBCABBBCBBBBCBBBBCBBBmCCCCDCCCCDCCCCDCCCCDCCCmDDCDEDD",
"mGGhFGGGFGGGGGGGGGGGGhGGmHHhHHHHphHHHHHhHHHHHHHHmAAAAAAAAAAAAAAhAAAAAAAAmBBBBBBBBBBBBBABBABBBhBBmCChCCCCChCBCCCCCCCCCpCCmDDhDDpD",
"mGGGGGGGGGGGGGGGGGGGGGGGmHHHHHHpHHHHHHHHHHHHHpHHmAAAAAAAAAAAAAAAAAAAAAAAmBBBBBBBBBBBBpBBBBBBBBBBmCCCCCCCCCCCCCBCCCCCCCCCmDDDDDDD",
"oooooooooooooooooooooooooooooooooooooooooooooooooooooooooooooooooooooooooooooooooooooooooooooooooooooooooooooooooooooooooooooooo",
"ssssssssssssmsssssssssssssssssssssssmsssssApAsssssssssssssssmpssssssAsssssssssssssssmsssssssssssssssssAsssssmAsssssssAssssssssss",
"GGGHGGGpHGGGmHHHHHHHHHHHHHHHHHHHHHHHmAAAABAAAABAAAABAAAABAAAmBBBBCBBBpCBBABCBBBBCBBBmCCCBCCCCBDCCCCDCCCCDCCCmDDDDEDDDDEDDDDEDDDD",
"GGGHGGGGHGGFmpHHHHHHHHHHHHHHHHHHHHHHmAAAABAAAABAAAABAAAABAAAmBBBBCBBBBCBBBBCBBBpCBBBmCBCCDCCCCDCCCCDpCCCDCCpmDDDDEDDDDDDDDDEDDDD",
"GGGHGFGGHGGGmHHHHHHHHGHHHHHHHHHHHHHHmAAAABpAAABAAAABAAAABAAAmBBBBCBBBBCBBBBCBBBBCBBBmCCCCDCCCCDCBCCDCCBCDCCCmDDDDEDpDDEDDDDpDDDD",
"GGGHGGGGHGGGmHHHHHHHHHHHHHHHHHHHHHHHmAAAAAAAAABAAAABAAAABAAAmBBBBCBBBBCBBBBCBBBBCBBBmCCCCDCCCCCCCCCDCCCCDpCpmDDDDEDDDDEDDDDEDDDD",
"GGGHGGGGHGGGmHHHHHHHHHHHHHHHHHHHHHHHmAAAABAAAABAAAABAAAABAAAmBBBBCBBBBCBBBBCBBBBCBBBmCCCCDCCBCDCCCCDCCCCDCCCmDDpDEDCDDEDDDDECDDD",
"GGGHGGGGHGGGmHHHHHHHHHHHHHHHHHHHHHHHmAAAABAApABAAAApAAAABAAAmBBBBCBBBBCBBBBCBBBBCBBBmCCCCDCCCCDCCCCDCCCCDCCCmDDDDEDDDDEDDDDEDDDp",
"GGGHGGGGHGGGmHpHHHHGHHHHHHHHHHHHHHHHmApAABApAABAAAABAAAABAAAmBBBBCBBBBCBABBCABBBCBBBmCCCBDCCCCpCCCCDCCCCDCCCmDDDDEDDDDEDDDDEDDDD",
"GGGHGGGGHGGGmGHHHHHHHHHHHHHHHHHHHHHHmAAAABAAAABAAAABAAAABAAAmBBBBCBBBBCBBBBCBBBBCBBBmCCCBDCCCCDCCCCDCCCCDCCCmDDDDEDDDDEDDDDEDDDD",
"GGGhFGGGGGGGmHHhHHHHHhHpHHHhHHHpHHHHmAAAAAAAAAAAAAAAAAAAAhAAmBBhBBBBBhBBBBBhBBBBBBBBmCChCCCCChCCCCChCCCCChCCmDDhDDDDDDDDDDCDDDDD",
"GGGGGGGGGGGGmHpHHHHHHHHHHpHHHHHHHHGHmAAAAAAAAAAAAAAAAAAAAAAAmBBBBBBBBBBBBBABBBBBBBABmCCCCCCCCCCCCCBCCCCCCCCCmDDDDDDDDDDDDDDDDDDC",
"mmmmmmmmmmmmmmmmmmmmmmmmmmmmmmmmmmmmmmmmmmmmmmmmmmmmmmmmmmmmmmmmmmmmmmmmmmmmmmmmmmmmmmmmmmmmmmmmmmmmmmmmmmmmmmmmmmmmmmmmmmmmmmmm",
"mAssssssssAsssssssssssssmAsssssssssssAssspssssssmsssssssssssssssssssssssmspsssssssssssssAssssppsmsAssspspssssssssspsssssmsssssss",
"mAAAABAApABAAAABAApABAAAmBBBBCBBBBpBBBBCBBBBCBBBmCCCCDCCCCDCCCCDCCpCDCCpmDDDDEDDDDEDDDDEDDDDEDDDmEEEEFEEEEFEEEEpEEEEFEEEmFFFFGFF",
"mAAAABAAAABAAAABAAAABAAAmBBBBCBBBBCBBBBCBBBpCBBBmCCCCDCCCCDCCCCpCCCCDCCCmDDDDEDDDDEDDCDEDDDDEDDDmEEEEFEEpEpEEEEFEEEEFEEEmFFFFGFF",
"mAAAABAAAABAAAABAAAABAAAmBBBBCpBpBCBBBBCBBBACBBBmCCCCDCCCCDBCCCDCCCCDCCCmDDDDEDDDDEDDCDEDDDDEpDDmEDEEFEEEEFEEEEFEEEEFEpEmFFFFGFF",
"mAAAABAAAABAAAABAAAABAAAmBBBBCBBBBCBBBpCBBBBCBBBmCCCCDCCCCDCCCCDCCCCDCCCmDDDDEDDDCEDDDDEDDDDEDDDmEEEEFEDEEFEEEEFEEEEFEEEmFFFFGFp",
"mAAAABApAABAAAABAAAABAAAmBBBpCABBBCBBBACBABBCApBmCCBCDCCpCDCCCCCCCCBDCCCmpDDDEDDDDEDDDDEDDDDEDDDmEEEEFEEEEFEEEEEEEEEFEDEmEFFFGFF",
"mAAAABAAAABAAAABAAAABAAAmBBBBCBBABCBBBBCBBBBCBBBmCCCCDCCCCDCCCCDCCCCDCCCmDDDDEDDDDEDDDDEDDDDEDDDmEEEEFEEEDpEEEEFEEEEFEEEmFFFFGFF",
"mAAAABAAAABAAAABAAAABAAAmBBBBCBBBBCBBBBCBBBBCBBBmCCpCDCCCCDCCCCDCCCCDCCCmDDDppDDDDECDDDEDDDDEDDDmEDEEFEEEEFEEEEFEEEEFEEDmFFFFGFF",
"mAAAABAAAAAAAAABAAAABAAAmBBBBCBBBBCBBBBCBBBBCABBmCCCCDCCCCDCCCCDCCCCDCCCmCDDDEDDDDEDDDDEDDDDEDDDmEEEEFEEEEFEEEEFEEEEFEEEmFFFFGFF",
"mAAhAAAAAhAAAAAhAAAAAAAAmBBhBBBBABBBBBBBBBBBBhBBmCBhCCCCCCCCCCCCCCCCChCpmDDDDDDDDhDDDDDDDDDDDhDDmEEEEEEEEhEEEEEhEEEEEEpEmFFhpEFF",
"mAAAAAAAAAAAAAAAAAAAAAAAmBBBBBBBBBBBBBBBABBBABBBmCCBCCCCCCCCCCCCCCCCCCCCmDDDDDDDDDDDDDDpDDDDpDDDmEEEEEEEEEEEEEEEEEEEpEEEmEFFFFFF",
"nnnnnnnnnnnnnnnnnnnnnnnnnnnnnnnnnnnnnnnnnnnnnnnnnnnnnnnnnnnnnnnnnnnnnnnnnnnnnnnnnnnnnnnnnnnnnnnnnnnnnnnnnnnnnnnnnnnnnnnnnnnnnnnn",
"ssssssssssssmssAssssssssssssssssssssmsssssssssssssssssssssAsmsssssssssssssssssssssssmssAssssssssssssssssssssmssssssssssssssssAss",
"AApBAAAABAAAmBBBBCBBBBCBBBBCBBBBCBBBmCCCCDCCCCDCCCCDCCCCDCCCmDDDDEDDDDEDDpDEDDDDpDDDmEEEEFEEEEFEEEEFEEEEFEEEmFFFFGFFFFGEFFFGFFpF",
"AAAAAAAABAAAmBBBBCBBBBCBBBBCBBBBCBBBmCCCCDCCCCCCCCCDCCCCDCCCmDDDDEDDDDEDDDDEDDDDDDDDmEEEEFEEEpFEEEEFEEEEFEEEmFFFFGFpFFGFFFFGFFFF",
"AAABAAAABAAAmABBBCBBBBCBBABCBBBBCBBBmCCCCDCCCCDCCCCDCCCCDCCCmDDDDEDDDpEDDDDEDDDDEDDDmEEEEFEEEEFEEEEFEEEEFEEEmFFFFGFFFFGFFEFGFFFF",
"AAABAAAABApAmBBBBBBBBBCBBBBCBBBBCABpmBCCCDCCCCDCCpCDCCCCDCCCmDDDpEDDDDEDDDDEDDDDEDDDmEEEEFEDEEFEEEEFEEEEFEEEmFFFFGFFFFGFFFFGFFFF",
"AAABAAAABAAAmpABBCBBBBCBBBBCBBBBCBBBmCCpCDCCCCDCCCCDCCCCDCCCmDDDDEDDDDEDDDCEDDDDEDDDmEEEEFEEEEFEEDEFEEEEFEEEmFFFFGFFFFGFFFFGFFFF",
"AAABAAAABAAAmBBBBCBBBBCBBBBCBBBBCBBBmCCCCDCCCCDCBCCDCCCCDCCCmDDDDEDDDDEDDDDDDCDDEDDDmEEEEFEDEEFEEEEFEEEEFEEEmFFFFGFFFFFEFFFGFFEF",
"AAABAAAABAAAmBBBBCBBBBCpBBBCBBBBCBBBmCCCCDCBCCDCCCCDCCCCDCCCmDDDDEDDDDEDDDDEDDDDEDCDmEEEEFEEEEFEEEEFEEEEFEEEmFFFFGFFFFGFFFFGFFFF",
"AAABAAAABAAAmBBBBpBBBBCBBBBCBBBBCBBBmCCCCDCCCCDCCCCDCCCCDCCCmDDDDEDDDDEDDDDEpDDDEDCDmEEEEFEEEEFEEEEFEpEEFEEEmFpFFGFFFFGFFFFGFFFF",
"AAAAAAAAAAAAmBpBBBBBBhBBBBBhBBBBBhBBmCChCCCCChCCCCCCCCCCChCCmDpDDDDDDhDDDDDCDDDDDDDDmEEhEEEEEhEEEEEEDDEEEhEEmFFhFFFFFhFFFFFhFEFF",
"AAAAAAAAAAAAmBBBBBBpBBBBBBBBBBBBBBBBmCCCCCCCCCCCCCCCCCCCCCCCmDDDDDDDDDDDDDDDDDDDDDDDmEEEEEEEEEEEEEEEEEEEEEEEmFFFFFFEFEFFFFFFFFFF",
"oooooooooooooooooooooooooooooooooooooooooooooooooooooooooooooooooooooooooooooooooooooooooooooooooooooooooooooooooooooooooooooooo",
"msssssssssssssssssssssssmssspssssAssssssssssssssmsssssssssssssssssssssssmsssssssssssssssssssssssmsssssssssssssssssssssssmsssssss",
"mCCCCDCCCCDCCCCDCCCCDCCCmDDDDEDDDDEDDDDEDDDDEDDDmEEEEFEEEEFEEEEFEEEpFEEpmFFFFGFFFFGFFFFGFFFFGFFFmGGGGHGGGGHGGGGHGGGGHGpGmHHHHHHH",
"mCCCpDCCCCDCCCCpCCCCDCCCmDDDDECDDDDDDDDEDCDDEDDDmEEEEFEEEEFEEEEFEpEEFEEEmFFFFGFFFFGFFFFGFFFFGFFFmGpGGHGGGGHGGGGHGGGGHGGGmHHHGHHH",
"mCCCCDCCCCDCCCCDCCCCDCCCmDDDDEDDDDECDDDEDDCDEDDDmEEEEFEEEEFEEEDFEDEEFEEEmFFFFGFFFFpFFFFGFFFFGFEFmGGGGHGFGGHGGGGHGGGGHFGGmHHHHHHH",
"mCCCCDCCCCDBpCCDCCCCDCCCmDDDDEDDDDEDDDDEDCDDEDDDmEEEEFEEEDFEEEEFEEEEFEEEmFFFFGFpFFGFFFFGpFFFGFFFmGGGGHGGGGHGGGGHGGGGHGGGmHHHHpGH",
"mCCCCDCCCCDCCCCDCCCCDCCCmDDDDEDDDDEDDDDEDDDDEDDDmEEEEFEEEEFEEEEFEEEEFEEEmFFFFGFFFFGFFFFGFFFFGFFFmGGGGHGGGGpGGGGHGGGGGGFGmHHHHHHH",
"mCCCCDCCCCDCCCCDCCCCDCCCmDDDDDDDDDEDDDDDDDDDEDDDmEEEEFEEEDFEEEEFEEEEpEEEmFFFpGFFFEGFFFFGFFFFGFFFmGGFGHGGpGHGGGGHGGGGHGGGmHHHHHHH",
""};
