/* XPM */
static char * xpm[] = {
"128 128 14 1",
"A c #b8503e",
"B c #ad4a39",
"C c #a14535",
"D c #963f30",
"E c #8a392c",
"F c #7f3327",
"G c #732e23",
"H c #68281e",
"m c #b9b9b9",
"n c #afafaf",
"o c #c5c5c5",
"s c #3c2018",
"h c #eb8260",
"p c #5f3c30",
"nnnnnnnnnnnnnnnnnnnnnnnnnnnnnnnnnnnnnnnnnnnnnnnnnnnnnnnnnnnnnnnnnnnnnnnnnnnnnnnnnnnnnnnnnnnnnnnnnnnnnnnnnnnnnnnnnnnnnnnnnnnnnnnn",
"msssssssssssssssssssssssmssssssssssssssssspsssssmsspssssssssssssssssssssmssssssssssssssssssssAAsmssssssssssspsssssssssssmssssssp",
"mAAAABAAAABAAAABAAAABAAAmBBBBCBBBBCBBBBCBBABCBBBmCCCCDCCCCDCCCCDCCCCDCCCmDDDDEpDDDEDDDDEDDDDEDDDmEEEEFEEEEFEEEpFDEEEFEEEmFFFFpFF",
"mAAAABAAAABAAAABAAAAAAAAmBBBBCBBBBCBBBBCBBBBCBBBmCCCCDCCCCDCCCCDCCCCDCCCmDDDDEDDDDEDDDDECDDDEDDDmEppEFEEEEFEEEEFEEEEFEEEmFFFFGFF",
"mAAAABAAAABAAAApAAAApAAAmBBABCBBBBCBBBBCBBBBCBBAmCCCCDCCCCDCCCCCCCCCDCCCmDDCDDDDDDEDDDDEDDDDEDDDmEEEDFEEEEFEEEEFEEEEFpEEmFFFFGFF",
"mAAAABAAAABAAAABAAAABAAAmBBBBCBBBBCBBBBCBBBBpBBBmCCCCDCBCCDCCCCDCCCCDCCCmDDDDEDDDDEDDDDEDDDDEDDDmEEEEFEEEEFEEEEFEEEEFEEEmFFFFGFF",
"mAAAABAAAABAAAABAAAABAAAmBBBBCBBBBCBBBBCBBBBCBBBmCCBCDCCCCDCCCCDCCCCDCCCmDDDDEDDDDEDDDDEDDDDEDDDmEEDEFEEEEFEEEEEEEEEFEEEmFFFFGFF",
"mAAAABAAAABAAAABAAAABAAAmBBBBCBBBBCBBABCBBBBCBBBmCCCCDBCCCDCCCCDCCCCDCCCmDDDDDDCDDEDDDDEDDDDEDDDmEEEEFEEEEFEpEEFEEEEFEEEmFFFFGFF",
"mAAAABAAAABAAAAAAAAABAAAmBBBBCBBBBBBBBBCBBBBCBBBmCCCCDCCCCDCCCCpCCCCDCCCmDDDDEDDDDEDDDDEDDDDEDDDmEEEpFEDEEFEEEEFEEEEFEEEmFEFFGFF",
"mAAApAAAAABAAAABAAAABAAAmBBBBCBBBBCBBBBCBBBACBBBmCCCCDCCCCDCCCCDCCCCpCCCmDDDDEDDDDEDDDDEDDCDpDDDmEEEEFEEEEFEEEEFEEEEFEEEmFFFFGFF",
"mAAhAAAAAhAAAAAAAApAAhAAmBBhBBBBBhBBBBBBBBBBBhBBmCChCCCCpCCCCCChCCCCChCCmDDDDDDDDhDDDDDhDDDpDDDDmEEEEEEDEEEEEEEhEEEEEEEEmFFhFFFF",
"mAAApAAAAAAAAAAAAAAAAAAAmBBBBBBBBBBppBBBBBBBBBBBmCCCCCCCpCCCCCCCCCCCCCCCmDDDDDDDDDDDDDCDDDDDDDDDmEEEEEEEEEDEEEEEEEEEEEEEmFFFFFFF",
"oooooooooooooooooooooooooooooooooooooooooooooooooooooooooooooooooooooooooooooooooooooooooooooooooooooooooooooooooooooooooooooooo",
"ssssssssssssmssssssssssssssssssssssAmspsssssssssssssssssssssmsssssAsAsssssssssssssssmsssssssssssssssspAsssssmssssssssssssAssssss",
"AAABAAAABAAAmBBBBCBBBBCBBBBCBBBBCBBBmCCCCDCCCCDCCCCDCCCCDCCCmDDDDEDDDDEDDDDEDDDDEDDDmEEDEFEEpEFEEEEFEEEEFEEEmFFFFGFFFFGFFFFGFFFF",
"AAABAAAABAAAmBpBBCBBBBCBBBBCBBBBCBBBmCCCCDCCCpDCCCCDCBCCDCCCmDDDDEDDDDEDDDDEDDDDEDDDmEEEEFEEEEFEEEEFpEEEFEEEmFFFFGFFFFGFFFFGFFFF",
"AAABAAAABAAAmBBBBBBBBBCBBBBCBBBBCpAAmCCCCDCCCCDCCCCDCCCCDCCCmDpDDEDDDDEDDDDEDDDDEDDDmEEEEFEEEEFEEEEFEEEEpEEEmFFFFGFFFFGFFFFGFFFF",
"AAABAAAABAAAmBBBBCBBBBCBBBBCBBBBCBBBmCCCCDCCCCDCCCBDCCCCDCCCmDDDDEDDDDEDDDDEDDCDEDDDmEEEEFEEEEFEEEEFEEEEFEDDmFFFFGFFFFGFFFFGFFFF",
"AAABAAAAAAAAmBBBBCBBBACBBBBCBBBBCBBBmCCCCDCCCCpCCCCDCCCCDCCCmDDDDEDDDDEDDDDEDDDDEDDDmEDEEFEEEEFEEEEFEEEEFEEEmFFFFGFFFFGFFFFGFFFF",
"ApABAAAABAAAmBBBBCBBBBCBBABCBBBBCBBBmCCCCDCCCCDCCCCDCCCCDCCCmDDDCEDDDpEDDDDEDDDDEDDDmEEEEFEEEEFEEEEpEDEEFEEEmFFFFGFEFFGFFFFGFFFF",
"AAABAAAABAAAmBBBBCBBBBCBBBBCABBBCBBBmCCCCDCCCCDCCCpDCCCCDCCCmCDDDEDCDpEDDDDEDDDDEpDDmEEEEFEEEEFEEEEFEEEEFEEEmFFFFGFFFFGFFFFGFFFF",
"AAApAAAABAAAmBBBBCBBBBCBBBBCABBBCBBBmCCCpDCCCCDCCCCDCCBCDCCCmDDDDEDDDDEDDDDEDpDDEDDDmEEEEFEEEEFEEEEFEEEEFpEEmFFFFGFFFFGFFFFGFFFE",
"AAAAAAAAAhAAmBBhBBBBBhABBBBhBBBBBhBBmCCCCCCCChCCCCChCCCCCCCCmDDhDDDCDhDDDDDDDDDDDhDpmEEEEEEEEEEEEEEhEEEEDhpEmFFFFFFFFFFFFFFFFFFF",
"AAAAAAAAAAAAmBBBBBBBBBBBBBBBBBpBBBBBmCCCCCpCCCCCCCCCCCCCCCCCmCDDDDDDDDDDDDDDDDDDDDCDmEEEEEEEEEEEEEEEEEEEEEEEmFFFFFEFFEFFFFFFFEFF",
"mmmmmmmmmmmmmmmmmmmmmmmmmmmmmmmmmmmmmmmmmmmmmmmmmmmmmmmmmmmmmmmmmmmmmmmmmmmmmmmmmmmmmmmmmmmmmmmmmmmmmmmmmmmmmmmmmmmmmmmmmmmmmmmm",
"mssssssssssssssssssssssAmsssssssssssssssspssspssmsssssssssssssssssssssssmpssssssssssssssssssssssmsssssssssssssssssssssssmsssssss",
"mCCCCDCCCCDCpCCDCCCCDCCCmDDDDEDDDDEDDDDEDDDDEDDDmEEEEFEEEEFEEEEFEEEEFEDEmFFFFGFFFFGFFFFGFpFFGFFFmGGGGHGGGGHGGGGHGGGGHGGGmHHHHHHH",
"mCCCCDCCCCDCCCCDCCCCDCCCmDDDDEDDDCEDDDDEDDDDEDDDmEEEEFEEEEEEEEEFpEEEFEEEmFFFFGFpFFGFFFFGFFFFGFFFmGGGGHGGGGHGGGGHGGGGHGGGmHHHHGHH",
"mCCCCDCCBCDCCCCDCCCpDCCCmDDDDEDDDDEDDDDEDDDDEDDDmEpEEFEEEEFEEEEFEEDEFDEEmFFFFGFFFFGFFFpGFFFFGFFFmGGGGHGGGGHGGFGHGGGGHGGGmHHHHpHH",
"mCCCCDCCCCDBCCCDCCCCDBCCmDDDDEDDDDEDDDDEDDDDEDDDmEEEEFEEEEFEDEEFEEEEFEEEmFFFpGFFFFGFFFFGFFFFGFFFmGGGGHGGGGHGGGFHGGpGHpGGmHHHHHHH",
"mCCCCDCCCCDCCCCDCCCCDCCCmDDDDEDDDDEDDDDEDDDDEDDDmEEEEFEEEEFEEEEFEEEEFEEDmFFFFGFFFFGFFFFGFFFFGFpFmGGGGHGGGGHGGGGHGGGGHGGGmHHHHHHH",
"mCCCCDCCCCDCCCCDCCCCDCCCmDDCDEDDDDEDDDDEDDDDEDDCmEpEEFEEEEFEDEEFEEEEFEEEmFFFFGFFFpGFFFFGFFFFGFFFmGGGGHFGGGHGGGGHGGGGHGpGmHHHHHHH",
"mCCCCDCCCCDCCCCpCCCCDCCCmDDDDEDDDDECDDDEDDDDEDDDmEEEEFEEEEFEEEEFEEEDFEEEmFFFFGFFFFGFFFFGFFFFGFpFmGGGGHGGGGHGGGGHGGGGHGGGmHHHHHHH",
"mCCCCDCCCCDCCCCDCCCCDCCCmDDDDEDDDDEDDDDEDDDDEDDDmEpEEFEEEEFEEEEFEEEEFEEEmFFFFFFFpFGFFFFGFFFFGFpFmGGGGHFFGGHGGGGHGGGGHGGGmHHHHHHH",
"mCCCCCCCCCCCCCChCCCCChCCmDDhpDDDDDDDDDDhDDDDDhDDmEDEEEEEEEEEEEEhEEEEEhEEmFFhFFFFFhFFFFFhFFFFFhFFmGGGGGGGGhGGGGGGGGGGGhGGmpphHHHH",
"mCCCCpBCCCBCCCCCCCCBCCCCmDCDDDDDDDDDDDDDDDDDDDCDmEEEEEEDEEEEEEEEEEEEEEEEmFFFFFFFFFFFpFFFFFFFFFFFmGGGGGGGGGGGGGGGGGGGGGGGmpHHHHHH",
"nnnnnnnnnnnnnnnnnnnnnnnnnnnnnnnnnnnnnnnnnnnnnnnnnnnnnnnnnnnnnnnnnnnnnnnnnnnnnnnnnnnnnnnnnnnnnnnnnnnnnnnnnnnnnnnnnnnnnnnnnnnnnnnn",
"ssssssssssssmsssssssssAsAsssAsssssssmssssssAAsssssssssssssssmsssssssssssssssssssssssmsssssssssssssssssssssssmsssssssssssssssssss",
"CCpDCCBCDCCCmDDDDEDDDDpDDDDEDDDDEDDDmEEEEFEEEEFEEEEFEEEEFEEEmFFFFpFFFFGFFFFGFFFpGFFFmGGGGHGGGGHGGGGHGGGGHGGGmHHHHHHHHHHHHHHHHHHH",
"pCCDCCCCDCCCmDDDDEDDDDEDDDDEDDDDEDDDmEEDEFEEEEFEEEEFEEEEFEEEmFFFFGFFEFGFFFFGFFFEGFFFmGGGGHGGGGHGGGGHGGGGHGGpmHHHHHHpHHHHHHHHHHHH",
"CCpDBCCCDCCCmDDDDEDDDDEDDDDEDDDDEDDDmEEEEFEEEEFEEEEFEEpEFEEEmFFFFGFFFFpFFFFGFFFFGFFFmGGGGGGGGGHGGGGHGGGGpGGGmHHHHHHHHHHHHHHHHHHH",
"CCCDCCCCDCCCmDDDDEDDDDEDDDDEDDDDEDDDmEEEEFEEEEFEEDEFEEEEFEEEmFFFFGFFFFGFFFEGFFFFGFFFmGGGGpGGGGHGGGGHGGGGHGGGmHHHHHHHHHpHHHHHHHHH",
"CCCDCCBCDCCCmDDDDEDDDDEDDDDEDDDDEDDDmEpEEFEEDEFEEEEFEEEEFEEEmFFpFGFFFFGFFFFGEFFFGFFFmGGGGHFGGGHGGGGHGGGGHGGGmHHHHHHHHHHHHHHHHHHH",
"BCCDCCCCDCCCmDDDDEDDDpEDDDDEpDDDEDDDmEEEEFEEEEFEEEEFEEEEFEEpmFFFFGFFFFGFFFFGFFFFGFFFmGGGGHGGGGHGGGGHFGGGHGpGmHHHHHHHHHHHHHHHHHHH",
"CCCDCCCCDCCCmDDDDEDDDDEDDDDEDDDDEDDpmEEEEFEEEEFEEEEFEEEEFEEEmFFFFGFFFFGFFFFGFFFFGFFFmGGGGHGGGGHGGGGHGGGGHGGGmHHHHHHHHHHHHHHHHHHH",
"CCCCCCCCDCCCmDDDDEDDDDEDDDDEDDDDEDDDmEEEEFEEEEFEEEEFEpEEFDEEmFFFFGFFFFpFFFFGFFFpGFFFmGGGGHGGGGHGGGGHGGGGHGGGmHHGGHHHHHHHHGHHHHHH",
"CCBCCCCCCCCCmDDhDDDDDhDDDDDhDDDDDDCDmEEhEEEEEEEEDEEEEEpEEhEEmFFhFFFFFFFFFFFFFFFFFhFFmGFhGGGGGGGFpGGGGGGGGGGGmHHHHHpHHHHGHHHHHHpH",
"CBCCCCCCCCCCmDDDDDDDDDDDDDDDDDpDDDDDmEEEEEEEEEEEEEEEEEEEEEEEmFFEFFFFFFFFFFFFFFFFFFFFmFpGGFGGGGGGGGGGGGGGGGGGmHHHHHHHHHHHpHHHHHHH",
"oooooooooooooooooooooooooooooooooooooooooooooooooooooooooooooooooooooooooooooooooooooooooooooooooooooooooooooooooooooooooooooooo",
"msssssssssssssssssssssssmsssssssssssssssssssssssmspsssssssssssssssssssssmsssssssssssssssssssssssmssssssssssAssssspssssssmsssssss",
"mDEEEFEEEEFEEEEFEEEEFEEEmEFFFGFFFFGFFFFGFpFFGFFFmGFGGpGGGGpGGGGHGGGGHGGGmHHHHHHHHHHHHHHHHHHHHHHHmAAAABAAAABAApABAAAABAAAmBBBBCBB",
"mpEEEFpEEEFEEEEFEEEEFEEEmFpFFGFFFFGFFFFGFFFFGFFFmGGpGHGGGGHGGGGHGGGGHGGGmHHHHHHHHHHHHHGHHpGHHHHHmAAAABAAAABAAAABAAAABAAAmBBBBBBB",
"mEEEpFEEEEFEEEEFEEEEFEEEmFFFFGFFFFGFFFFGFFFFGFFEmGGGGHGGGGHGGGGHGGGGHGGGmHHHHHHHHHHHHHHHHHHHHHGHmAAAABAAApBAAAABAAAApAAAmBBBBCBB",
"mEpEEFEEEEFEEEEFEEEEFEEEmFFFFGFFFFGFEFFGFFFFGFFFmGGGGHGGGGHGGGGHGGpGHGGGmHHHHHHHHHHHHHGHHHpHHHpHmAAAABAAAABpAAABAAAABAAAmBBBBCBB",
"mEEEEFEEEEFEEEEFEEEEFEEEmFFFFGFFFFGFFFFGFFFFGFFFmGGGGHGpGGHGGGGHGGGGHGGGmHHHHHHHHHHHHHHHHHHHHHHHmAAAABAAApBAAAABAAAAppAAmBBBBCBB",
"mEEEEEEEEEFEEEEFEEDEFEEEmFFFFGFFFFGpFFFGFFFFGFEFmGGGGHGGGGHGGGGHGGGGHpGGmHGHHHHHHHHHHHHHHGHHHHHHmAAAABAAAABAAAABAAAABAAAmABBBCBB",
"mEEEDEEEEEFEEEEFEEEEFEEEmFFFFpFFFFGEFFFGFFFFGFFpmGGGGHGGGGHGGGGHGGGGHGGGmHHHHHHHHHHGHHHHHHHHHHGHmAAAABAAAABAAAABAAAAAAAAmBBBBCBB",
"mEEEEFEEEEFEEEEFEEEEFEEEmFFFFGFFFFGFFFFGFFFFGFFFmGGGGHGGGGHGGpGHGGGGHGGGmHpHHHHHHHHHHHHHHHHHHHGHmAAAABAAAABAAAABAAAABAAAmBBABCBB",
"mEEEEEEEEEEEEEEhEEEEEhEpmpFhFFFFFFFFFFFFFFFFFFFFmGGhGGGGGhGGGGGhGGGGGhGGmHHHHHHHphHHHHHHHHHHHhHHmAAhAAAAAhAAAAAhAAAAAAAAmBBpBBBB",
"mEEEEEEEEEEEEEDEEEEEEEEEmFFFFFFFFFFFFFFFFFFFFFFEmGGGpGGGGGGGGGGGGGGGGGGGmHHHHHHHpHHHHHHHHGHHHHGHmAAAAAAAAAAAAAAAAAAAAAAAmBBBBBBB",
"mmmmmmmmmmmmmmmmmmmmmmmmmmmmmmmmmmmmmmmmmmmmmmmmmmmmmmmmmmmmmmmmmmmmmmmmmmmmmmmmmmmmmmmmmmmmmmmmmmmmmmmmmmmmmmmmmmmmmmmmmmmmmmmm",
"ssssssssssssmsssAssssssssssssssAssAsmsssssssssssssssssssssssmssssssssspsssspssssssssmssssssssssssspsssssssssmsssssssssssssssssss",
"EEEFEEEEFEEEmFFpFGFpFFGFFFEGFFFFGFpFmGFGGHGGGGHGGGGHGGGGHGGGmHHHHHHHHHHHHHHHHHHpHHHHmAAAABAAApBAAAABAAAABpAAmBBBBCBBpBCBBBBCpBBB",
"EEDFEEEEFEEEmFFFFGFFFFGFFFFGFFFFpFFFmGGGGHGGGGHGGGGHGGGGHGGGmHHHHHHHHHGHHHHHHHHGHHHHmAAAABAAAABAAAABAAAABAAAmBBBBCBBBBCBBBBBBBBB",
"EEEFEEEEFpEEmFFFFGFFFFGFFFFGFFFFGFFFmpGGGHGGGGHFGGGGGGGGHGGGmHHHHHHHHHHHHHHHHHHHHHHHmAAAABAAAABAAAABAAAABAAAmBBBBCBBpBCBBBBCBBBB",
"EEEFEEEEFEEEmFFFFGFFFFGFFFFGFFFFGFFFmGGGGHGGGGHGGGGHGGGGHGGGmHHHHHHHHHHHHHHHHHHHHHHHmAAAABAAAABAAAABAAAABAAAmBBBBCBBBBCBBBBCBBBB",
"EEEFEEEEFEEEmFFFFGFFFFFFFFFGFFFFGFFFmGGGFHGpGGHGGGGHGGGGHGGGmHHHHHpHHHHHHHHHHHHHHHHHmAAAABAAAABAAAABAAAABAAAmBBBBCBBpBCBBBBCBBBp",
"EEEFDEEEFEEEmFFFFGFFFFGFFFFGFFFFGFFFmGGGGHGGGGGGGGGHGGGGHGGGmGpHHHHHHHHGHHHHGHHHHHHHmAAAABAAAABAAAABAAAABAAAmBBBBCBBBBCABBBCBBBB",
"EEEFEEEEFEEEmFFFFGFFFFGFFFFFFFFFGFFFmGGGGHGGGGHGGGGHGpGGHGGGmHHHHHHHHHHHHHHHHHHHHHHHmAAAABAAAABAAAABpAAABAAAmBBBACBBBBCBABBCBBBB",
"EEEFDEEEFEEEmFFFFGFFFFGFFFFGFFFFGFFFmGGGGHGGGGpGGGGHGGGGHGGGmHHHGHHHHHHHHHHHHHHHHHHHmAAAABAAAABAAAABAAAABAAAmABBBBBBBBCBBBpCBBBB",
"EEEhEEEEEhEEmFFFFFFFFhFFEFFhFFFFFhFFmGGhGGGGFGGGGGGhGGGGGGGGmHGhHHHHHHHHpHHHHHHHHhHHmAAAAAAAAhAAAAAAAAAAAhAAmBBBABBBBhBBBBBhBBBB",
"EEEDEEEEEEEEmFFFFFFFFFFFFFFFFFFFFFFFmGGGGGGGGGGGGGGFGGGGGGGGmHGHHHHHHHHHHHHHGHHHHHGHmAAAAAAAAAAAAAAAAAApAAAAmBBBBBBBBBBBBBBBBBBB",
"nnnnnnnnnnnnnnnnnnnnnnnnnnnnnnnnnnnnnnnnnnnnnnnnnnnnnnnnnnnnnnnnnnnnnnnnnnnnnnnnnnnnnnnnnnnnnnnnnnnnnnnnnnnnnnnnnnnnnnnnnnnnnnnn",
"mAssssspsssssAssssssssssmssssssssssssssssssssssAmsssssAsssssssssssssssssmssssssssssssssApsssssssmsssssspssssssssssssssssmAssssss",
"mGGGGHGGGGHGGGGHGGGGHFGGmHHHHHHHHHHHHGHHHHHHHHHHmAAAABAAAABAAAABAAAABAAAmBBBBCBBBBCBBBBCBBBBCBBBmCCBCDCCpCDCCCCDCpCCDpCCmDDDCEDD",
"mGGGGHGGGGHGGGGHFGGFHGGGmHHHHHHHHHHHHHHHHHHHHHHHmAAAABAAAABAAAABAAAABAAAmBBBBCBBBACBpBBCpBBBpBBBmCCCCDCCCCDCCBCDCCCCDCCCmpDDDEDD",
"mGGFGHGGGGHGGGGHGGGGHGpGmHHHHHHHHHHHHHHHHHHHHHHpmAAAABAAAABApApBAAAABAAAmBBpBCBBBBCBBBBCBBBBCBBBmCCCCDCCCCDCCCCDCCCCDpCCmDDDDEDp",
"mGGGGHGGGGHGGGGHGGpGHGGGmHHHHHHHHHHHHHHHHHHHHHHHmAAAABAAAABAAAABAAAABAAAmBBBBCBBBBCBBBBCBBBBCABBmCCCCDCCCCDCCCCDCCCCDCCCmDDDDEDD",
"mGGGGHGGFGHGGGGpFGGGHGGGmHHHGHHHHHHHHHHHHHHHHHHHmAAAABAAAABAAAABAAAABAAAmBBBACBBBBpBBBBCBBBBCBBBmCCCCDCCCCDBCCCDCCpCDCCCmDDDDEDD",
"mGGpGHGGGGHGGGGHGGGGHGGGmHHHHHHHHHHHHHHHHGHHHHHHmAAAAAAApAAAAAABAAAABAAAmBBBBCBBBBCBBBBCBBBBCBBBmCCCCDCCCCDCCCCDCCpCDCCCmDDDDEDD",
"mFGGGHGGGGHGGGGHFGGGHGGGmHHHHpHHHHHHHHHHHHHHHHHHmAAAABAApApAAAABAAAABAAAmBBBBCBBBBCBBBBCBBABBBBBmCCBCDCCCCDCCCCDCCCCDCCCmDDDDEDD",
"mGGGGHGGGGHGGGGHFGGGHGGGmHHHHHHHpHHHHHHHHHHHHHHHmAAAABAAAABAAAABAAAABAAAmBBBBCBBBBCBBBBCBBBBCBBBmCCCCDCCCCDCCCCDCCCCDCCCmDpDCEDD",
"mGGGGGGGGhGGGGGhGGGpGhGGmHHhHHHHHHHHHHHhHHHHHHHGmAAAAAAAAhAAAAAAAAAAAAAAmBBhBBBBBhBBBBBBBBBBBhBBmCChCCCCChCCCCChCCCCCCCCmDDhDDDD",
"mGGGGGGpGGGGGGGGGGGGGGGGmHHHHHHHHHHHHHHpHHHHHGHHmAAAAAAAAAAAAAAAAAAAAAAAmBBBBBBpBBBBBBBBBBBBBBBBmCCCCCCCCCCCCCCCCCCCCCCCmDDDDDDD",
"oooooooooooooooooooooooooooooooooooooooooooooooooooooooooooooooooooooooooooooooooooooooooooooooooooooooooooooooooooooooooooooooo",
"ssssssssssssmsssssssssssAsssssssssssmsssssssssAAsssssssssssAmsssAssssssssssssssAssssmsssspssssssssssssssssssmssAsAssssssssssssss",
"GGGGGpGGHGGGmHHHpHHHHHHGHHHHHHpHHHHHmAAAABAAAABAAAABAAAABAAAmBBBBCBBBBCBBBBCBBBBCBBBmCCCCDCCCBDCBCCDCCCCDCCCmDDDDECDDDEDDCDEDDDD",
"GGGHpGFGHGGFmHHHHHHHHHHHHHHHHHHHHHHHmAAAABAAAABAAAABAAAABAAAmBBBBCBBBBCBBBBCBBBBCBBBmCCCCDCCCCDCCCCDCCCCDCCCmDDDDEDDDDEDDDDEDDDD",
"GGGHGGGGHGGGmHHHGHHHHHHHHHHHHHHHHHHHmAAApBAAAABAAAABAAAABAAAmBBBBCBBBBCBBBBCBBBpCBBBmCCCCDCCBCDCCCCDCCCCDCCCmDDDDEDDDDEDDDDEDDDD",
"GFGHGGGGHGGGmHHHHHHHHHHHHHHHHHHHHHHHmAAAABAAAABAAAABAAAABAAAmBBBBCBBBBCBBBBBBBBBCBBBmCCpCDCCCCDCCCCDCCCCDCCCmDDpDEDDDDEDDDDEDDDD",
"GGGHGGGGHGGGmHHHHHGHHHHHHHHHHHHHHHHHmAAAABAAAABpAAABAAAAAAAAmBBBBCBBBBCBABBCBpBBpBBBmCCCCDCCCCCCCCCDCCCCDCCCmDDDDEDDDDEDDDDEDDDC",
"GGGHGGGGHGGGmHHHHHHHHHHHHHHHHHHHHHHHmAAAABAAAABAAAABAAAABAAAmBBBBCBBBBCBBBBCBBBBCBBBmCCCCDCCCCDCCCCDCCCCDCCCmDDDDEDDDDEDDDDEDDDD",
"GGGHGGGGHGGGmpHHHHHHHHHHGHHHHHHHHHHHmAAAABAAAABAAAABAAAABAAAmBBBBCBBBBCBBBBCBBBBCBBBmCCCCDCCpCDCCCCDCCBCDCCCmDDpDEDDDDEDDDDEDDpD",
"FGGHGGGGHGGGmHHHHHHHHHHHHHHHHHHHHHHHmAAAABApAABAAAABAAAABAAAmBBBBCBpBBCBBBBCBBBBCBBAmCCCCDpBCCDCCCCpCBCCDCCCmDDDDEDDDDEDDDDEDDDD",
"GGGGGGGGGGGGmHHHHHHHHhHHHHHHHHHHHHHHmAAhAAAAAhAAAAAhAAAAAAAAmBpBBBBBBBBBBBBBBBBBBhBBmCChCCCpCCCCCBCCCCCCCCCCmCDDDDDDDhDDDDDhDDDD",
"GGGGGGGGGGGGmHHHHHHHGHHGHHHHHHHHHGHHmAAAAApAAAAAAAAAAAAAAAAAmBpBBBBBBBBBBBBBBBBBBBBBmCCCCCBCCCCCCCCCCCCCCCCCmDpDDDCDDDDDDDDDDDDD",
"mmmmmmmmmmmmmmmmmmmmmmmmmmmmmmmmmmmmmmmmmmmmmmmmmmmmmmmmmmmmmmmmmmmmmmmmmmmmmmmmmmmmmmmmmmmmmmmmmmmmmmmmmmmmmmmmmmmmmmmmmmmmmmmm",
"msssssssssssssssssssssssmsspssssAsssssssssssssspmsssssssssssssssssssssssmsAsssssssssssssssssssssmsssssssssssssssssssAAssmssssAss",
"mAAAABAAAABAAAABAAAABAAAmBBBACBBBBCBBBBCBBpBCBBBmCCCCDCCCCDCCCCDCCCCDCCCmDDDDEDDDDEDDDDEDDDDEDDDmpEEEFEEEEFEEEEFEEEEFEEEmFFFFGFF",
"mAAAABAAAABpAAAAAAAABAAAmBBBBCBBBBCBBBBCBBBBCBBBmCCCCDCCCCDCCCCDCCCCDCCCmCDDDEDDDDEDDDDEDDDDEDDDmEEEEFEEEEFEEEEEEEEpFEDEmFFFFGFF",
"mAAAABAAAABAAAABAAAABAAAmBBBBCBBBBCBBBBCBBBBCBBBmCCCCDCCCCDCCCCDCCCCDCCCmDDDDEDDDDEDDDDEpDDDEDDDmEEEEEEEEEEEEEEFEEDEFEEEmFFFFGFF",
"mpAAABAAAABAAAAAAAAABAAAmBBBBBBBBBCBBBBCBBBBCBBBmCCBCDCCCCDCCCCDCCCCDCCCmDDDDEDCDDEDDDDECDDDEDDDmEEEEFEEEEFEEEEFEEEEFEEEmFFFEGFF",
"mAAAABAAAABAAAABAApABAAAmBBBBCBBBBCBBBBCBBBBCBABmCCCCDCCBCDCCCCDCCCCDCCCmDDDDEDDpDEDDDDEDDDDEDDDmEEEEFDEEEFEEEEFEEEEFEDEmFFFFGFF",
"mAAAABAAAABAAAAAAAAAAAAAmBBBBCBBBBCBBBBCBBBBCBBpmCCCCDCCCCDCCCCDCCCCDCCCmDDDDEDDDDEDDDCEDDCDEDDDmpEEEFEEEEFEEEEFEEEEFEpEmFFFFGFF",
"mAAAABAAAABAApABAAAABAAAmBBBBCBABACBBBBCBBBBCBBBmCCCCDCCCCDCCCCDCCCCDCCCmDDDDDDDDDEDDDDEDDDDEDDDmEEEEFEEEpFEEEEFEEEEFEEEmFFFFFFF",
"mAAAABAAAABAAAABAAAABAAAmBBBACBBpBCBBBBCBBBBCBBBmCCCCCCCCpDCCCCDCCCCDCCCmCDDDEDDDpEDDDDEDDDDEDDDmEEEEFEEEpFEEEEFEEEEFEEEmFFFFGFF",
"mAAAAAAAAAAAAAAhAAAAAhAAmBBhpBBBBhBBBBBBBABBBhBBmCChCpCCChCCCCChCCCCChCCmDDDDDDDDDDDDDDhDDDDDDDCmEEhEEEEEhEEEEEhEEEEEpEDmFFFFFFF",
"mAAAAAAAAAAAAAAAAAAAAAAAmBBBBBBBBBBpBBBBBBBBBBBBmCCCCCCCCCCCCCCCCCCCCCCCmDDDDDDDDDDDDDDDDDDDDDDDmEEEEEEEEEEEEEEEEDEEEEEEmFFFFFFF",
"nnnnnnnnnnnnnnnnnnnnnnnnnnnnnnnnnnnnnnnnnnnnnnnnnnnnnnnnnnnnnnnnnnnnnnnnnnnnnnnnnnnnnnnnnnnnnnnnnnnnnnnnnnnnnnnnnnnnnnnnnnnnnnnn",
"ssssssssssssmssssssssssAssssssssssssmsssssssssssssssssssssssmssssssssAssssspsssssAssmsssssssssssssssssssssssmsssssssssssssssssss",
"AAABAAAABAAAmBBBBCpBBBCBBBBCBBBBCBBBmCCCCDCCCCDCCCCDCCCCDCCCmDDDDEDDDDEDDDDEDDDDEDDDmEEEEFEEEEFEEEEFEEEEFEEEmFFFFGFFFFGFFFFGFFFF",
"AAABAAAABAAAmBBBBCABBBCBBBBCBBBBCBBBmCCCCDCCCCDCCCCDCCCCDCCCmDDDDEDDDDEDDDDpDDDDEDDDmEEEEFEEEEFEEEEFEEEEFEEEmpFFFGFFFFGFFFFGFFFF",
"AAABAAAABAAAmBBBBCBBBBCBBBBCBBBBCBBBmCCCCDCCCCDCCCCDCCCCDCCCmCDDDEDDDDDDDDDEDDDCEDDDmEEpEFEEEEFEEEEFEpEEFEEEmFFFFGFFEFGFFFFGFFFF",
"AAABAAAABAAAmBBBBCBBBACBBBBCBBBBCBpBmBCCCDCCCCDCCCCDCCpCDCBCmDDDDEDDDDDDDDDEDDDDEDDDmEEpEFEEEEFEEEEFEEEEFEEEmFFFFGFFFFFFFFFGFFFF",
"AAABAAAABAAAmBBBBCBBBBCBBBBCBBBBCBBBmCCCCDCCpCDCBCCDpCCCDCCCmDDDDEDDDDEDDDDEDDDDEDDDmEEEEFEEEEFEEEEFEEEEFEEDmFEFFFFFEFGFFFpGFFFF",
"AAABAAAABAAAmBBBBCBBBBCBBBACBBBBCBBBmCCCCDCCCCDCCCCDCCCCDCpCmDDDDEDDDDEDDDCEDDDDEDDDmEEEEFpEEEpEEEEFEEEEFEEpmFFFFGFFFFGFFFFGFpFF",
"AAABAAAABAAAmBBBBCBBBBCBBBpCBBBBCBBBmBCCCDCCCCDCCCCDCCpCDCCCmDDDDEDCDDpDDDDEDDDDEppDmEEEEFEEEEFEEEEFEEEEFEEEmFFFFGFFFFGFEFFGFFFF",
"AAABAAAABAAAmBBBBCBBBBCBBBBCBBBBCBBBmCCCCDCCBCDCCCCDCCCCDCCCmDDDDEDDDCEDDpDDDDDDEDDCmEDEEFEEEEFEEEEFEEEEFEEEmFFFFGpEFFGFFFFGFFFF",
"AAAhAAAAAhAAmBBhBBBBBhBBBBBhBBABBBBBmCCCCCCCCCCCCCChCCCCChCCmDDhCDDDDhDDDDDhDDDDDhDDmEEEEEEEEEEEEEDEEEEEEhEEmFFhFFFFFFFFFFFhFFFF",
"AAAAAAAAAAAAmBBABBBBBBBBBBBBBABBBBBBmCCCCCCCCCCCCCCCCCCCpCCCmDDDDDDDDDDDDDDDDDDDDDDDmEEEEEEEEEEEEpEEEEEEEEEEmFFFFFFFFFFFFFFFFEFF",
"oooooooooooooooooooooooooooooooooooooooooooooooooooooooooooooooooooooooooooooooooooooooooooooooooooooooooooooooooooooooooooooooo",
"msssssssssssssssssssssssmsssAsssssssssssssssssssmssssAsssssspssssAssssssmsssssssssssssssssssssssmsssAsssssssssssssssssssmsssssss",
"mCCCCDCCCCDCCCCDCCCCDCCCmDDDDEDDDDEDDDDEDDDDEDDDmEEEEFEEEpFpEEEFEpEEFDEEmFFFFFFFFFGFFFFGFFFFGFFFmGGGGHGGGGHFGGGHGGGGHpGGmHHGHHHH",
"mCCCCDCCCCDCCCCDCCCCDCCCmDDDDEDDDDEDDDDEDDDDECDDmEEEEEEEEEFEEEEFEEEEFEEEmFFFFGFFFFFFFFFGFFFFGFFFmGGGGHGGGGHGGGGHGGGGHGGGmHHHHHHH",
"mCCCCDCCpCDCCpCDCCCCDCCCmDDDCEDDDDEDDCDEDDDDEDDDmEEEEFEEEEFEEEEFEEEEFEEEmFFFFGFFFFGFFFFGFFFFGFFFmGGGGHGGGGHGGGGHGGGGHFGGmHHHHHHH",
"mCCCCDCCCCDCCBCDCCCCDCCpmDDDDEDDDDEDDDDEDDCDEDDDmEEEEFEEEEFEEEEEEEEEFEEEmFFFFGFFFFGFFFFGFFFFGFFFmGGGGHGGGGHGGGGHGGGGHGGGmHHHHpGH",
"mCCCCDCCCCDCCCCDCCCCpCCCmDDDDEDDDDEDDDDEDDDDEDDDmEEEEFEEEDFDEEEFEEEEFEEpmFFFFGFFFFGFFFFGFFFFGFFFmGGGGHGGGGHFGFGHGGGGHGGGmHHHHHHH",
"mCCCCDCCCCDCCCCDCCCCDBCCmDDDDEDDDDEDDDDEDDDDEDDDmEEEEFEpEEFEEpEFEEEEEEEEmFFFFGFpFFGFFFFGFFFFGFFFmGGGGHGGGGHGGGGHGGGGHGGGmHHpHHHH",
""};
