/* XPM */
static char * xpm[] = {
"128 128 14 1",
"A c #783024",
"B c #722e22",
"C c #6d2b21",
"D c #67291f",
"E c #61271d",
"F c #5b251b",
"G c #56221a",
"H c #502018",
"m c #afafaf",
"n c #a5a5a5",
"o c #bbbbbb",
"s c #281410",
"h c #c86e50",
"p c #462820",
"nnnnnnnnnnnnnnnnnnnnnnnnnnnnnnnnnnnnnnnnnnnnnnnnnnnnnnnnnnnnnnnnnnnnnnnnnnnnnnnnnnnnnnnnnnnnnnnnnnnnnnnnnnnnnnnnnnnnnnnnnnnnnnnn",
"mssssssssssAsssAssssssssmsssssssssssssssssssssssmsssssssssssssssssssssssmssssspssssssssssAssssssmssssssssssAssAsssssssssmsssssss",
"mAAAABAAAABAAAABAAAABAAAmBBBBCBBBBCBBBACBABBCBBBmCCCCDpCCCDBCCCDCCCpDCCCmDDDDEDDDDEDDDDEDDDDEDDDmEEEEFEEEEFEEEEFEEEEFEEEmFFFFGFF",
"mAAAABAAAABAAAABAAAApAAAmBBBBCBBBBCBBBBCBBBBCBBBmCCCCDCCCCDCCCCDCCCCDCCCmDDDDEDDDDEDDDDEDDpDEDDDmpEEEFEEEEFEEEEFEEEEFEEEmFFFFFFF",
"mAAAABAAAABAAAABpAAABAAAmBBBBCBBABCBBBBCBBBBCABBmCCCCDCCCCDCCCCDCCCCDCCCmDDDDEDDDDEDDDDEDDpDEDDDmEEEEFEEEEFEEEEFEEEEEEEEmpFFFGFF",
"mAAAABAAAABAAAABAAAABApAmBBBBCBBBBCBBBBCBBBBCBBBmCCCCDCCCCDCCCCDCCBCDpCCmDDDDEDDDDEpDDDEDDDDEDDDmEEEEFEEEEEEEEEFEEEEFEEEmFFFFGFF",
"mAAAABAApABAAAABAAAApAAAmBBBBCBBBBCBBBBCBBBBCBBBmCCpCDCCCCDCCCCDCCCCDBCCmDDDDEDDDDEDDDDEDDDDEDDDmEEEEFEEEEFEEEEFEpEEFEEEmFFFFGFF",
"mAAAABAAAABAAAABAAAABAAAmBBpBCBBBBCBBBBCBBBBCBBAmCCCpDCCCCDCCpCDCCCCDCCCmDDDDEDDDDEDDDDEDDDDEDDDmDEEEFEEEEFEEEEFDEEEpEEEmFFFEGFF",
"mAAAABAAAABAAAABAAAABAAAmBBBBCBBBBCBBBBCBBBBCBBBmCCCCDCCCCDCCCCDCCCCDCCCmDDDDEDDDDEDpDDEDDDDEDDDmEEEEFEEEEFEEEEFEEEEFEEEmFpFpGFF",
"mAAAABAAAABAAAABAAAABAAAmBBBBCBBBBCBBBBCBBBBCBBBmBCCCDCCCCDCCCCCCCCCDCCCmDDDDEDDDDEDDDDpDDDDEDDDmEEEEFEEEEFEEEEFEEEEFEEEmFFFFGEF",
"mAAAAAAAAAAAAAAhAAAAAhAAmABhBBBBBhBBBBBBBBBBBhpBmCCCCCCCChCCCCCCCCCCCCCCmDphDDDDDhDDDDDDDDDDDDDDmEEhEEEEEhEDEEEhEEpEEhEEmFFFFFFF",
"mAAAAApAAAAAAAAAAAAAAAAAmBBBBBBBBBBBBBBBBBBBBBBBmCCCCCCCCCCCCCCCCCCCCCCCmDDDCDDDDDDCDDDDDDDDDDDDmEEEEEEEEEEEEpEEEpEEDEEEmFFFFFFF",
"oooooooooooooooooooooooooooooooooooooooooooooooooooooooooooooooooooooooooooooooooooooooooooooooooooooooooooooooooooooooooooooooo",
"sAssssssssssmssssssssssssssssssssAssmsAsssssssssssssssspssssmsssssssssssssssspsssssAmssssssssssssssssssspsssmssssssssssssAssAsss",
"AAABAAApBAAAmBBBBCBBBBCBBBBCBBBBCBBBmCCCBDCCCCDCCCCDCCCCDCCCmDDDDEDDDpEDDDDEDDDDEDDDmEEEEFEEEEFEEEEFEEEEFEEEmFFFFGFFFFGEFFFGFFFF",
"AAABAAAABAAAmBBBBCBBBpCBBBBCBBBBCBBBmCCCCDCCCCDCCCCDCCCCDCCCmDDDDEDDDDEDDDDEDDDDEDDpmEEpDFEDEEFEEEEFEEEEFEEEmFFFFGFFFFGFFFFGFFEF",
"AAABAAApBAAAmBBBACBBBBCBBBACBBBBCBBBmCBCCDCCpCDCCCCDCCCCDCCCmDDDDEDDDDEDDDDEDCDDEDDDmEEEEFEEEEFEEEEFEEEEFEEEmFFFFGFFFFGFFFFGFFFF",
"AAABAAAABAAAmBBBBCBBBBCBBBBCBBBBCBBBmCCCCDCpCCDCCCCDCCCCDCCCmDDDDEDDDDEDDDDpDpDDEDDDmpEEEFEEEEFEpEEFEEEEFEEEmFFFFGFFFFGFFFFGFFFF",
"AAABAAAABAAAmBBBBCBBBBCBBBBCBBBACBBBmCCCCDCCCCDCCCCDCCCCDCCCmDDDDECDCDEDDDDEDDDDEDDDmEEEEFEEpEFEDEEFEEEEFEEEmFFFFGFFFFGFFFFGFFFF",
"AAABAAAABAAAmBBBBCBBBBCBBBBCBBBBCBBBmCCCCDCCCCDCCCCDCBCCDCCBmDDDDEDDDDEDDDDEDDDDEDDDmEEEEFEEEpEEEEEFEEEEFEEEmFFFFGFFFpGFFFFGFFFF",
"AAABAAAABAAAmBBBBCABBBCBBBBCABBBCABBmCCCCDCCCCDCCCCDCCCCDBCpmDDDDECDDDEDDDDEDDDDEDDDmEEEEFEEEEFEEEEFEEEEFEEpmFFFEGFFFFGFFFFGFFFF",
"AAABAAAABAAAmBBBBCBBBBCBBBBCBBBBCBBBmCCCCDCCCCDCCCCDCCCCDCCCmDDDDEDDDDEDDDDECDCDEDDDmEEEEFEEEEFEEEEFEEEEFEEEmpFFFGFFFFGFFFFGFFFF",
"AAAAAAAAAhAAmBBBBBBBAhBBBBBhBBBBBBABmCChCCCpChCCCCChCCCCCCCCmDDhDDDCDDDDDDDhDDDDphDCmEEEEEEEEhEDEEEEEEDEEhEEmFFhFFFFFFFEFFFpFFFF",
"AAAAAAApAAAAmBBpBBBBBpBBBBBBBABBBBBBmCCCBCCCCCCCCCCCCCCCCCCCmDCDDDDDDDDDDDDDDDDDDDDpmEEEEEEEEEEEEEEEEEEEEEEEmFFFFFFFFFFFFFFFFFFF",
"mmmmmmmmmmmmmmmmmmmmmmmmmmmmmmmmmmmmmmmmmmmmmmmmmmmmmmmmmmmmmmmmmmmmmmmmmmmmmmmmmmmmmmmmmmmmmmmmmmmmmmmmmmmmmmmmmmmmmmmmmmmmmmmm",
"mssssspsssssssssssssssssmsssssssssssssssssssssssmssssssssssssssssssAssAsmssAsssssssssssssssssAssmsssssssssssspsspsssssssmsssssss",
"mCCCCDCCBBDCCCCDCCCCDpCCmDDDDEDDDDEDDDDEDDDDEDDDmEEEEFpEEEFEEEEFEEEEFEEEmFEFFGFFFFGFFFFGFFFFGFFFmGGGGHGGGGHGGGGHGGGGHGGGmHHHGHHH",
"mCCCCDCCCCDCCCCDpCCCDCCCmDDDDEDDDDEDDDDEDDDDEDDDmEEEEFEEEEFEEEEFEEEEFEEEmFFFFGFFpFGFFFFGFFFFGFFFmGGGGHGGGGpGGGGHGGGGHGGGmHHHHHGH",
"mCCCCDCCCBDpCCCDCCCpDCCCmDDDDEDDDDEDDDDEDDDDEDDDmEEEEFEEEEpEEEEFEEEEFEEEmFpFFGFFFFGFFFFpFFFFGFFFmGpGGHGGGGHGGGGHGGGGHGGGmGHHHHHH",
"mCCCCDCCCCDCCCCDCCCCDBCCmCDDDEDDDDDDDDDEDDDDEDDDmEEEEFEEEEFEEEEFEEEDFEEEmFFFFGFFFFGFFFFGFFFFGFFFmpGGGHGGGGHGGGGHGGGGHGGGmHHHHHHH",
"mCCCCDCCCCDCCCCDCCCCDCCCmDDCDEDDDDEDDDDEDCDDEDDDmEEEEFEEEEFEEEEFEEEEFEEEmFFFFGFFFFGFFFFGFFFFGFFFmGGGGpGGGGHGGGGHGGGGHGGGmHHHHHHH",
"mCCCCDCCCCDCCCCDCCCCDCCCmDDDDEDDDDEDDDDEDDDDEDDDmEEEEFEEEEFEEEEFEEEEFEEEmFFFFGEFFFFFpFFGpFFFGFFFmGGGGHGGGGHGGGGHGGGGpGGGmHHHHHHH",
"mCCCCCCCCCDCCCCDCCCCDCCCmDDDDEDDDDEDDDDEDDDDEDDDmEEEEFEEEEFEEEEFEEEEFEEpmFFFFGFFFFGFFFFGFFFFGFFFmpGGGHGGGGHGGGGHGGGGHGGGmHHHHHHH",
"mCCCCDCCCCDCCCCDCCCCDCCCmDDDDEDDDDDDDDDEDDDDEDDDmEEEEFpEEEEEEEEFDEEEFEEDmFFFFGFFFFGFFFFGFFFFGFFFmGGGGHGGGGHGGGGHGGGGHGGGmHHHHHHH",
"mCBhCCCCCCCCCCCCCCCCChCCmDDhDDDDDhDDDDDDDDDDDhDDmEEEEEEEEhEEEEEEEEEEEEEEmFFpFFEFFhFFFFFhFFFFFFFFmGGhGGGGGhFGGGGGGGGGGhGGmHHHHHHH",
"mCCCCCCCCCCCCCCCCCCCCCCCmDDDDDDDDDDDDDDDDDDDDDDDmEEEEEEEEEEEEEEEEEEEEEEEmFFFFFFFFFFFFpFFFFFFFFFFmGGGGGGGGGGGGFGGGFGGGGGGmHHHHHHH",
"nnnnnnnnnnnnnnnnnnnnnnnnnnnnnnnnnnnnnnnnnnnnnnnnnnnnnnnnnnnnnnnnnnnnnnnnnnnnnnnnnnnnnnnnnnnnnnnnnnnnnnnnnnnnnnnnnnnnnnnnnnnnnnnn",
"ssssssssssssmsssssssssssssssssssssssmssssssAssssssssssssssApmssAssssssssssspssssssssmsssssssssssssssssssssssmssssssssssspsssssss",
"CCCDCCCCDCCCmDDDDEDDDDEDDDDEDDDDEDDDmEEEEFEEEEFEEEEFEEEEFEEEmFFFFGFFFFGFFFFGEFFFGFFFmGGFGHGGGGHGGGGHFGGGHGGGmHHHHHGHHHHHHHHHHHHH",
"CCCDCCCCDCCCmDDDDEDDDDEDDDDDDDDDEDDDmEEEEFEEEEFEEEEpEDEEEEEEmFFFFGFFFFGFFFFFFEFFGFFFmGGGGHGGGGHGGGGHGGGGHGGGmHHHHHHHHHHHHHHHHHHG",
"CCCDCCCCDCCCmCDDDEDDDDEDDDDEDDDDECDDmEEEEFEEEEFEEEEFEEEEFEEEmFFFEGFFpFGFFFFFEFFFGFpFmGGGGHGGGGHGGGGHGGGGHGGGmHHHHHHHHHHHHHHHHHHG",
"CCCDBCCBDCCCmDDDDEDDDDEDDDDEDDDDpDDDmEEEEFEEEEFEEEEFEEEEFEEEmFFFFGFFFFGFFFFGFFFFGFFFmGGGGHGGGFHGGGGHGGGGHGGGmHHHHHHHHGHHHGHHHHHH",
"CCCDCCCCDCCCmDDDDEDDDDEDDDDEDDDDEDDDmEEEEFEEEEFEEEEFEEEEFEEEmppEFGFFFFGFFFFGpFFFGFFFmFGGGHGGGGHGGGGHGGGFHGGGmHHHHHHHHHHHHHHHHGHH",
"CCCDCCCCDCCCmCDDDEDDDDEDDDDEDDDDEDDDmEEEEFEEEEFEEDEpEEEEFEEEmFFFEGEFFFGFFFFGEFFFGFFFmGGGGHGGGGHGGGGHGGGGHGGGmHHHHHHHHHHHHHHHHHHH",
"pCCDCCCCDCCpmDDCDEDDDDEDDDDEDDCDEDDDmEpEEFEEEEFDEEEEEEEEFEEEmFFFFFFFFpGFFFFGFFFFGFFpmGGGGHFGGGHGGGGHGGGGHGGGmHHHHHHHHHHHHHHHHHHp",
"CBCDCCCCDCCCmDDDDEDDDDEDDDDEDDDDEDDDmEEEEFEEEEFEEEEFEEEEFEEEmFFFFGFFFFGFFEFGFFFFGFFFmGGGFHGGGGHGGGGHGGGGHGGGmHpHHHHHHHHHHHHHHHHH",
"CBChCCCCChCCmDDDDDDDDhDDDDDhDpDDphDDmEEEEEEEEhEEEEEEEEDEEhEEmFFFFFFFFFFFFFFhFFFFFhFFmGGhGGGGGhGGGGGhGGGGGhGGmHHhHHHHHhHHHHHHHHHH",
"CCCCCCCCCCCCmDDDDDDDDDDDDDDDDDDDDDDDmEEEEEEDEEEEEEEEEEEEEEEEmFFFpFFFFFFFFFFFFFFFFFFEmGGGGGGGGGGGGGGGGGGGGGGGmpHHHHHGHHpHHHHHHHHH",
"oooooooooooooooooooooooooooooooooooooooooooooooooooooooooooooooooooooooooooooooooooooooooooooooooooooooooooooooooooooooooooooooo",
"msssssssssssssssssssAsssmssssssssssssspsssssssssmsssssssssssssssssssssssmsssssssssssssssssssssssmssssssssssspsssssssssssmsssssss",
"mpEDEFpEEEFEEEEFEEEEFEEEmEFFFGFFFFGFFFFGFFFFpFFFmGGGGHGGGGHGGGGGpGGGHGGGmGHHHHHHHHHHHHHHHHHHHHHHmAAAABAAAABAAAABAAAABAAAmBBBBCBB",
"mEEEEFEEEEEEEEEFEEEEFEEEmFFFFGFFFFGFFFFGFFFFGFFFmGGGGHGGGGHGGFGHGGGGHGGGmHHHHHHHHHHHHHHHHHHHHHHHmAAAABAAAABAAAABAAAABAAAmBpBBCBB",
"mEEEEFEEEEFEEEEFEEEEFEEEmFFFFGEpFFGFFFEFFFFFGFFFmGGGGHGGGGHGGGGHGGGFHGGGmHHHHHHHHHHHHpHHHHHHHHHHmAAAABAAAABAAAABAAAABAAAmBBBBCBB",
"mEEEEEEEEpFEEDEFEEEEFEEEmFFFFGFFFFGFFFFGFFFFGFFFmGGGFHGGGGHGGGFHGGGGHGGGmHHHHHHHHHHHHHHHHHHHHHHHmAAAABAAAABAAAABAAAABAAAmBBBBCBB",
"mEEDEFEEEEFEEEDFEEEEFEEEmFFFFGFFFFGFFFFFFFFpGFFFmGGGGHGGGGHGGGGHGGGGHGGGmHHHHHHHHHHHHHHHHHHHHHHHmAAAABAAAABAAAABAAAABAAAmBBpBCBB",
"mEEEEFEEEEFEEDEFEEEEFEEEmFFFFGFFFFGFFFFGFFFFGFFFmGGGGHGGGGHGGGGHGGGGHGGGmHHHGHHHHHHHHHHHHHHHHHHHmAAAABAAAABAAAABAAAABAAAmBpBBCBB",
"mEEEEFEEEEFEEEEFEEEEFEEEmFFFFGFFFFGFFFFGFFFpGFFFmGGGGHGGGGHGGGGHGGGGHGGGmHHHHHHHHHHHHHHpHHHHHHHHmApAABAAAABAAAABAAAABAAAmBBBBCBB",
"mEEEEFEEEEFEEEEFEEEEFEEEmFFFFGFpFFGFFFFGFpFFGFFpmGFGGHFGGGHGGGGHGGGGHpGGmHHHHHHHHHHHHHHHHHHHHHHHmAAAApAAAABAAAABAAAABAAAmBBBBCBB",
"mDEhEEEDEhEEEEEhEEEEEEEEmFFFFFFFFFFFFpFFFFFFFhFFmGGhGGGGGGGGGGGGGGGGGhGGmHHhHHHHHHHHHHHhHHHHHhHpmAAhAAAAAhAAAAAhAAAAAAAAmBBBABBB",
"mpEEEEEEEEDEEEEEEEEEEEEEmFFFEFFFFFFFFFFFFFFEFFFFmGGGGFGGGGGGGGGGGGGGGGGGmGHHHHHHHHHHHHHHHHHHHHHHmAAAAAAAAAAAAAAAAAAAAAAAmBBBBABB",
"mmmmmmmmmmmmmmmmmmmmmmmmmmmmmmmmmmmmmmmmmmmmmmmmmmmmmmmmmmmmmmmmmmmmmmmmmmmmmmmmmmmmmmmmmmmmmmmmmmmmmmmmmmmmmmmmmmmmmmmmmmmmmmmm",
"ssssssssspssmsssAsssssssssssssssssssmssssssssAssssssssssssssmssssssAssssssssssssssssmsssssssssAsssssssssssssmssspsAssssssssssAss",
"EEEFEEEEFEEEmFFFEGFFFFGFEFFGFFFFGFFFmGGGGHGGGGGGGGGHGGGGHGGGmHHHHpHHHHHHGHHHHHHHHHHHmAAAABAAAAAAAAABAAAABAAAmBBBBCBBpBCBBBBCBBBB",
"EDEFEEEEFpEEmEFFFGFpFFGEFFFGFFFFGFFFmGGGGHGGpGHGGGGHGGGGHGGGmHHHHHHGHHHHHHHHGHHHHHHHmpAAABAAAABAAAABAAAABAAAmBBBBCBBABCBBBBCBBBB",
"EEEFEEEEFEEEmFFFFGFFFFGFFFFGFFFFGFFFmGGGGHGGGGGGGGGHGFGGHGGGmHHHHHHHHHHHHHHHHHHHHHHHmAAAABAAApBAAAABAApApAAAmBABBCBBBBCBBBBCBABB",
"EEEFEEEEFEEDmFFFFGFFFFGFEFEGpFFFGFFFmGGGGHGGGGHGGGGHFGGGHGGGmHGHHHHHHHHHHHHGHHHHHHHHmAAAABAAAABAAAABAppABAAAmBBBBCBBBBCBBBBCBBBB",
"EEEFEEEEFEEEmFFFFGFFFFGFFFpGFFFEGFFFmGGGGHGGGGHGGGGHGGGGHGGGmGHHHHHHHpGHHHHHHHHHHHHHmAAAABAAAABAAAABAAAABAAAmBBBBCBBBBCABBBCBBBB",
"EEEFEEEEFEEEmFFFFGFFFFGFFFFGFFFFGFFFmGGGGHGGGGHGGGGHGGGGGGGGmHHHHHHHHHHHHHHHHHHHHHHHmAAAABAAAABAAAABAAAABAAAmBBBBCBBBBCBBBBCBBBB",
"EEEFEEEEFEEEmFFFEGFFFFGEFFFGFFFFGFFFmGGGGHGGGGHGGGGHGGGGHGFGmHHHHHHHHHHHHHGHHHHHHHHGmAAAABpAAABAAAABAAAABAAAmBBBBCBBBBCBBBpCBBBB",
"EDEFEEEEFEEEmFFFpGFFFFGFFFFGFFFFGFFFmGGGGHFGGGHGpGGHGGGGHGGGmHpHHHHHHHHHHHHHHHHHHHpHmAAAABAAAABAAAABAAAABAAAmBBBBCBBBBCBBBBCBBBB",
"EEEhEEEEEpEEmFEFFFFFFhFFFFFFFFFFFhFFmGGhGGGGGhGGGGGGFGGGGGGGmHHHHHHHHpHHHHHhHHHHphHHmAAAAAAAAAAAAAAhAAAAAhAAmBBhBBBBBhBBBBBBBBAB",
"EEEEEEEEEEEEmFFFFFFFFFFFFFFFFFFFFFFFmGGGGGGGGGGGGGGGGGGGGGGGmHHHHHHGHHHHHHHHHHHHHHHHmAAAAAAAAAAAAAAAAAAAAAAAmBBBBBBBBBBBBBBBBBBB",
"nnnnnnnnnnnnnnnnnnnnnnnnnnnnnnnnnnnnnnnnnnnnnnnnnnnnnnnnnnnnnnnnnnnnnnnnnnnnnnnnnnnnnnnnnnnnnnnnnnnnnnnnnnnnnnnnnnnnnnnnnnnnnnnn",
"mAsssssssssssAssssssssssmsssssssssssssssssssssssmssssssssssssssspsAsssAsmsssAAssssssssssssssssssmsssssssssssssssssssssssmsssssss",
"mGGFGHGGGGHGGGGHGGFGHGGGmHHHHGHHHHHHHHHHHGHHHHHHmAAAABAAAABAAAABAAApBAAAmBBBACBBBBCBBBpCBBBBCBABmCCCCDCCCCDBCCCDCCCCDCCCmDDDDEDD",
"mGGGGHGFGGHGGGGHGGGGHGGGmpHHHHHHHHHHHHHHHHHHHHpHmAAAABAAAABAAAABAAAABAAAmBBBBCBBBBCBpBBBBBBBCBBBmCCCCDCCCCDCCCCDCCCCDCCCmDDDDECD",
"mGGGGHGGGGHGGGGHGGGGHGGFmHGHHHHHHHHHHHHHHHHHHHHHmAAAABAAAABAAAABAAAABApAmBBBBCBBBBCBBBBCBBBBCBBBmCCCCDCCCCDCCCCCCCCCDCCCmDDDDEDD",
"mGGGGHGGGGHGpGGHGGGGHFGGmHHHHHHHHHHHHHHHHHHHHHHHmAAAAAAAAABAAAABAAAABAAAmBBBBCBBBBCBBBBCBBABCBBBmCCCCDCCCCDCCCCDCCCCDCBCmDDDDEDD",
"mGGGGHGGGGHGGGGHGGGGHGGGmHHHHHHHHHHGHGHHHHHHHHHHmAAAABAAAABAAAABAAAABAAAmBBBBCBBBBCBpBBCBBBACBBBmCCCCDCCCCDCCCCDCCCCDBCCmDDpDEDD",
"mGGGGHGGGGHGFGGHGGGGHGGGmHHHHHHGHHHHHHHHHHHHHHHHmAAAABAAAABAAAABAAAABpAAmBBBBCBBBBBBBBBCBBBBCBpBmBpBCDCCCCDCCCCDCCCCDCCCmDDDDEDD",
"mGGGGHFpFGHGGGGHFGGGHGGpmHHHHHHHHHGHHHHHHHHHHHHpmAAAABAAAABAAAABAAAABAApmBBBBCBBBBCBBBBCBBppCBBBmCCCCDCBCCDCCCCDCCCCDCCCmDDCDEDD",
"mGGGGHGGpGHGpGGHGGGpHGGGmHHHHHHHHHHHHHHHHHHHHHHHmAAAABAAAABAAAABAAAABAAAmBBBBCABBBCBBBBCBBpBCBBBmCCBCDCCCCDCCCCDCCCCDCCCmDDDDEDD",
"mGGhGGGGGhGGGGGhGGGGGhGGmGHHHHHHHhHHHHHhHHHHHhHGmAAhAAAAAAAAAAAhAAAAAAAAmBBBBBBBBhABpBBBBBABBhBBmCCCCCCCChCCCCChCCCCChCCmDDhDDDD",
"mGGGGGFGGGGGGGGGGGGGGGGGmHHHHHHHHHHGHHHHHHHHHHHHmAAAAAAAAAAAApAAAAAAAAAAmBBBBBBBBBBBBBBBBBBBBBBBmCCBCCCCCCCpCpCCCCCBCCCCmDDDDDDD",
"oooooooooooooooooooooooooooooooooooooooooooooooooooooooooooooooooooooooooooooooooooooooooooooooooooooooooooooooooooooooooooooooo",
"ssssssssssssmsssssssssssssssssssssssmsspssssAsssssssssppssssmsssssssssssssssssssssssmsssssssssssssssssssssssmsssssssssssssssssss",
"GGFHGGGGHFGGmHHpHHHHHHHHHHHHHHHHHHHHmAAAABAAAABAAAABAAAABAAAmBBBBCBBBBCBBBBCBBBBCBBBmCCpCCCCCCDCCCCDCCCCpBCCmDDDDEDDDDEDDDDEDDDD",
"GGGHGGGGHGGGmHHHHHHHHHHHHHHHHHHHHHHHmAAAABAAAABAAAApAAAABAAAmBBBBCBBBBCBBBBCBBBBCBBBmCCCCDCCCCDCCCCDCCCCDCCpmDDDDEDDDDEDDCDEDDDD",
"GGGHGGGGHFGGmHHHHHHHHHHHHHHHHHHHHHHHmAAAABAAAABAAAABAAAABAApmBBBBCBBBBCBBBBCBBBBCBBBmCCCCDCCCCDCCCCDCCCCDCCCmDDDDEDDDDEDDDDEDDDD",
"GFGHGGGGHGGGmHGHHHHHHHHHHHHHHHHHHGHHmAAAABAAAABAAAABAAAABAAAmBBBBCBBBBCBBBBBBBBBCpBBmCCpCDCCCCCCCCCDCCCCDCpCmDDDDEpDDDEDDDDEDDDD",
"GGGHGGGGHGGGmHHHHHHHHHHHHHHHHHHHHHHHmAAAABAAAABAAAABAAAABAAAmBBBBCBBBBCBBBACBBBBCBBBmBCCCDCCCCDCCCCDCCCCDpCCmDDDDEDDDDEDDDDEDDDD",
"GGGHGGGGGGGGmHHHHHHHHHHHHHHHHHHHHHHHmAApABAAAABAAAABAAAABAAAmBBBBCBBBBCBBBBCBBBBCBBBmCCCCDCCCCDCCCCDCCCCDCCCmDpDDEDDDDEDDDDEDDDD",
"GGGHpGGGHGGGmHHHHHHHHHHHHHHHHHHHHHHGmApAABAAAABAAAABAAAABAAAmBABBCBBBBCBBBBCBBBBCBBBmCCCCDCCCpDCCCCDCCCCDCCCmDDDDEDDDDEDpDDEDCDD",
"GGGHGGGGHGFGmHHHHHHHHHHHHHHHHHHHHHHHmAAAABAAAABAAAABAAAABAApmBBBBCBBBACBBBBCBBBBCBBBmCCCCDCCCCDCCCCpCCCCDCCCmDDDDEDCDDEDDDDECDDD",
"GGGGGGGGGGGGmHHhHHHHHhHHHHHHHHHHHhHHmAAhAAAAAAAAAAAhAAAAAAAAmBBhBBBBBBBBBBBBBBBBBhBBmCphCCCCCCCCpCCBCCCCChCCmDDhDDDDDDDDDDDhDDDD",
"GGGGGGGGGGGGmHHHHHHHHHHGHHHHHHHHHHHHmAAAAAAAAAAAAAAAAAAAAAAAmBBBBABABBpBBBBBpBBBBBBBmCCCCCCCCCCCCCCCCCCCCCBCmDDDDDDDDDDDDDDDDDDD",
"mmmmmmmmmmmmmmmmmmmmmmmmmmmmmmmmmmmmmmmmmmmmmmmmmmmmmmmmmmmmmmmmmmmmmmmmmmmmmmmmmmmmmmmmmmmmmmmmmmmmmmmmmmmmmmmmmmmmmmmmmmmmmmmm",
"mssssssssssssssssssssAssmssssssssssssAssssssssssmsssssssssssssspssssssssmssssssssssssspsssssssssmpssssssssssssssssssssssmsssssss",
"mAAAABAAAABAAAABAAAABAAAmBBBBCBBBBCBBBBCBABBCBBAmCCCCDCCpCDCCCCDCCCCDpCCmDpDDEDDDDEDDDDEDDDDEDDDmEEEEFEEEDFEEDEFDEEEFEEEmFFFFGFF",
"mAAAABAAAABAAAABAAAABAAAmBBBBCBBBBCBBBBCBBBBCBBBmCCCCDCCCBDCCCCDCCCCDCCCmDDDDEDDDDEDDDDEDCDDEDDDmEEEEFEEEEFEEEEFEEEEFEEEmFFFFGFF",
"mAAAABAAApBAAApBAAAABAAAmBABBCBABBCABBBCBBBBCBBBmCCCCDCCCCDCCCCDCBCCDCCCmDDDCDDDDDEDDDDEDDDDEDDDmEEEEFEEpEEEEEEFEEEEFEEpmEFFFGFE",
"mAAAABAAAABAAAABAAAABAAAmBBBBCBBBpCBBBBCBBBBCBBBmCCCCDCCCCDCCCCDCCCCDCCCmDDDDEDDDDDDDDDEDDDDEDDDmEEEEFEEEEFEEEEFEEDEFEEEmFFFFGFF",
"mAAAABAAAABAAAABAAAABAAAmBBBBCBBBBCBBBBCBBBBCBBBmCCCBDCCCCDCCCCDCpCCDCCCmDDDDEDDDDEDDDDEDDDDDDDDmEEEEFEEEEFEEEEFEEEEFEEEmFFFEpFF",
"mAAAABAAAABAAAABAAAABAAAmBBBBCBBBBCBBBBCBBBBCBBBmCCCCDCCCCDCCCCDCCCCDCCCmDDDDECDCDEDDDCEDDDDEDDDmEEEEpEEEEFEEEEFEEpEFEEEmFFFFFFF",
"mAApABAAAABAAAABAAAABAApmBBBBCBBBBCBBBBCBBBBCBBBmCCCCDCCCCpCpCCDCCpCDCCCmDCDDEDDDDEDDDDEDDDDEDDDmEEEEFpDEEFDEEEFEEEEFEEEmFFFFFFF",
"mAAAABAAAABAAAABAAAABAAAmBBBBCBBBBCBBBBBBBBBCBBBmCCCCDCCCCDCCCCDCCCCDCCCmDDDDEDDDDEDDDDEDDDDECDDmEEEEFEEEEFEEEpFEEEEFEEEmFFFFGFF",
"mAAhAAAAAAAAAAAhAAAAAhAAmBBBABBBBhBABBBBBBBBBBBBmCChCCCCCCCCCBChCCCCCCCCmDDhCDDDDDDDDDDhDDCDDhDDmEEhEEEEEhEEEEEEEEEEEhEEmFFFFFFF",
"mAAAAApAAAAAAAAAAAAAAAAAmBBBBBABBBBBBpBBBBBBBBBBmCCCCCCCCCCCCCCCCCCCCCCCmDDDDDDDDDDDDDDDDDDDDDDDmEEEEEEEEEEEEpEEEEEEEEEEmFFFFFFF",
"nnnnnnnnnnnnnnnnnnnnnnnnnnnnnnnnnnnnnnnnnnnnnnnnnnnnnnnnnnnnnnnnnnnnnnnnnnnnnnnnnnnnnnnnnnnnnnnnnnnnnnnnnnnnnnnnnnnnnnnnnnnnnnnn",
"ssssssssssssmssssssspsssssssAsssssssmsssssssssssssssssssssAsmsssssssssssssAsssssssssmsssssssssAsssssssssssssmsssssssssssssssssss",
"AAABAAAABAAAmBBBBCBBBBCBBBBCBBBBCBBBmCCCCDCCCCDCCCCCCCCCDCCCmCDDDEDDDDEDDDDEDDDDEDDDmEEEEFEEEEFEEEEppEEEFEEDmFFFFGFFFFGFFFFGFFFF",
"AAABAApABAAAmBBBBCBBBBCBBBBCBBBBCBBBmCCCCDCCCCDBCCCDCCCCDCCBmDDDpEDDDDEDDDDEDDDDEDDDmEEDEFEpEEFEDEEFEEEEFEEEmFFFFGFFFFGFFFFGFFFF",
"AAABAAAABAAAmBBBBCBBBBCBBBBCABBBpBBBmCCCCDCCCCDCCCCDCCCCDCCCmDDDDEDDDDEDDDDEDDDDEDDDmEEEEFEEEEFEEpEFEEEEFEEEmFFFFGFFEFGFFFFGFFFF",
"AAABAAAABAAAmBBBBCBBBBCBBBBCBBBBCBBBmCCCCDCCCBpCCCCDCCCCDCCBmDDDCEDDDDEDDDDEDDDDEDDDmEEEEFEEEEFEEEEFEEEEFEEEmFFFFGEFFEGFFpFGFFFF",
"ApABAAAABAAAmBBBBCBBBBCBBBBCBBABCBBBmCCCCDCCCCDCCCCDpBCCDCCCmDDDDEDDDDEDDDDEDDDCEDDDmEEEEFEEEEpEEEEFEpEEFEEEmFFFFGFFFFGFFFFGFFEF",
"AAABAAAABAAAmBBBBCBBBBCBBBBCBBBBCBBBmBCCBpCCCCDCCCCDCCCCpCCCmDDDDEDDDDEDDpDEDDDDEDDCmEEEEFEEEEFEDEEFEEEEFEEEmFFFFGFFFFGFFFFGFFFF",
"AAABAAAABAAAmBBBBCBBBBCBBBBCABBBCBBBmCCCCDCCCCDCCCCDpCCCDCCCmDDDDEDDCDEDDDCEDDDDEDDDmpEpEFEEEDFEEEEFEEEEFEEEmFFFFGFFFFGFFEFGFFFF",
"AAABAAAABAAAmBBBBCBBBBCppBBCBBBBCBBBmCCCCDCCCCDCCCCDCCCCDBCCmDDDDEDDDDEDDDDEDDDDEDDDmEEEEFEEEEFEEEEFEEEEpEEEmFFFFGpFFFGEFFFGFFFF",
"AAAAAAAAAhAAmBBhBBABBBBBBBBhBBBBBBBBmCChCCCCChCCCCChCCCCChBCmDDhDDDDDhDCDDDDDDDDDDDDmEEEEEDEEhEEDEEhEEEEEEEEmFFhFFFFFhFFFFFFFFFF",
"AAAAAAAAAAAAmABBBBBBBBBBBBBBBBBBBBBBmCCCCCCCCCCCCCCCCCCCCCCCmDDDDDDDDDDDDDDpDDDDDDDDmEEEpEEEEEEEEEEEEEEEEEEEmFFFFFFFFEFFFFFFFFpF",
"oooooooooooooooooooooooooooooooooooooooooooooooooooooooooooooooooooooooooooooooooooooooooooooooooooooooooooooooooooooooooooooooo",
"msssssAsAsssssssssssssssmssssssssssssspsssssssssmsssssssssssssssssssssspmsssssssssssAsssssssssssmssssssssssssssssspsssspmsssssss",
"mCpCCDCCCCDCCCCDCCCCDpCCmDDDDEDDDDEDDDDEDDDDEDDDmEEEEFEEEEFEEEEFEEEEFEEEmFFFFGFFFFGFFFFGFFFFGFFFmGGGGHGGGGHGGGGHGGGGHGGGmHHHHHHH",
"mCCCCDCCCCDCCCCDCCCCDCCCmDDDDEDDDDEDDDDEDDDDEDDDmEEDEFEEEEFEEEEFEEEEFEEEmFFFFGFFFFGFFFFGFFFFGFFFmGGGGGGGGGpGGGGHGGGGHGGGmHHHHHHH",
"mCCCCDCCCCDCCCCDCCCpDCCBmDDDDEDDDDEDDDDEDDDDEDDDmEEEEFEEEEFEEEEFEEEEFEEEmFFFFGFFFFGFFFFGFFFFGFFFmGGGpHGGGGHGGGGHFGGGHFGGmHHHHHHH",
"mCCCCDCCBCDCCCCDCCCCDCCCmDDDDEDDDDEDDDDEDDDDECDDmEEDEFEEEEFEEEEFEEEEFEEEmEFFFGFFFFGFFFFGFFFFGFFFmGGGGHGGGGHGpGGHGGGGGFGGmHHHHHHH",
"mpCCCDCCCCDBCCCCCCCCDCCCmDDCCEDDDDEDDDDEDDCDEDDDmEDEEFEEEEFEEEEFEEEEFEEEmFFFFGFFFFGpFFFGFFFFGFFFmGGGGHGGGGHGFGGHGGpGHGGFmHHHHHHH",
"mCCBCDCCCCDCCCCDCCCCDCCCmDDDDEDDDDEDDDDEDCDDEDDDmEEpEFEEEEFpEEEFEEEEFEEEmFFFFGFFFFGFFFFFFFFFGFFFmGGGGHGGGFHGGGGHGGGGHGGGmHHHHHHH",
""};
