/* XPM */
static char * xpm[] = {
"128 128 14 1",
"A c #b04636",
"B c #a84233",
"C c #a13f30",
"D c #993b2d",
"E c #91372b",
"F c #893328",
"G c #823025",
"H c #7a2c22",
"m c #bebebe",
"n c #b4b4b4",
"o c #cacaca",
"s c #3a2018",
"h c #ee7e5f",
"p c #5c342a",
"nnnnnnnnnnnnnnnnnnnnnnnnnnnnnnnnnnnnnnnnnnnnnnnnnnnnnnnnnnnnnnnnnnnnnnnnnnnnnnnnnnnnnnnnnnnnnnnnnnnnnnnnnnnnnnnnnnnnnnnnnnnnnnnn",
"mssssAsAssssssssssAsssssmssssssssssssAsssssssssAmssssssssssssssssppsssssmsssssssAsssssssssssssAsmssssssssssAssssssssssssmsssssss",
"mAAAABAAAABAAAABAAAAAAAAmBBBBCBBBBCBBBBCBABBCBBBmCCCCDCCCCDCCCCDCCCCCCCCmDDDCEDDDDEDDDDEDDDDEDDDmEEEEFEEEEFEEEEFEEEEpEEEmFFFFGFF",
"mAAAABAAAApAAAABpAAABAAAmBpBBCBBBBCBBBBCBBBBCABBmCCCCDCCCCDCCCCDCCCCDCCCmDDDDEDDDDEDDDDEDDDDEDDDmEEEDFEEEEFEDEEFEEEEFEEEmFFFFGFF",
"mAAAABAAAABAAAABAAAABAAAmBBBBCBBBBCBBBBCBBBBCBBBmCCCCDCCCCDCCCCDCCCCDCCCmDDCDEDDDDEDDDDEDDDDEDDDmEEpEFEEEEFEEEDFEEEEFEEEmFFFFGFF",
"mAAAABAAAApAAAABAAAABAAAmBBBBCBBBBCBBBBCpBBBCBBBmCCCCDCCCCDCCCCDCCCCDCCCmDDDDEDDDDEDDDDECDDDEDDDmEDEEFEEEEFEEEEFEEEEFEEEmEFFFGFF",
"mAAAABAAAABAAAABpAAABAAAmBBBBCBBBpCBBBBCBBBBCBBBmCCCCDCCCCDCCCCDCCCCDCCCmDDDDEDDDDEDpDDEDDDDEDDDmEEEEFEEEEFEEEEFEEEEFEEEmFFFFGFF",
"mpAAABAApABAAAABAAAABAAAmBBBBCBBABCBBBBCBBBBBBBpmCCCCDCCCCCCCCCDCCCCDCCCmDDDDEDDDDDDCDDEDDDDEDDDmEEEEFEEEDFEEEEFEDEEFEEEmFFFpGFp",
"mAppABAAAAAAAAABAAAABAAAmBBBBCBBBBCBBBBCBABBCBBBmCCCCDCCCCDCCCCDCCCCDpCCmDDDDEDDDDEDDDDEDDCDEDDDmEEEEFDEEEFEEEEFEEEEFEEEmFFFFpFF",
"mAAAABAAAAAAAAABAAAABAAAmpBBBCBBBBCBBBBCBBBBCBBBmCCCCDCCCCDBCCCDCCCCDCCCmDDDDEDDDDEDDDDEDDDDEDDDmEEEEFEEEEFEEEEFEEEEFDEEmFFFFGFF",
"mAAhAAAAphAAAAAAAApAAAAAmBBBBBBBBBBBBBBBBBBBBhBBmCChCCCCCCCCCCChCCCCChCCmDDDDDDDDCDDDDDhDDDDDhDDmpEEEEEEEhEEEEEEEEEEEhEEmFFhFFEF",
"mAAAAAAAAAAAAAAAAAApAAAAmBBBBBBBBBBBBpBBBBBApBBBmCCCCCCCBBCCBCCCCCCCCCCCmDDDDDCDDDDDpDDDDDDDDDDDmEEEEEEEEEEEEEEEEEEDEEEEmFFFFFpF",
"oooooooooooooooooooooooooooooooooooooooooooooooooooooooooooooooooooooooooooooooooooooooooooooooooooooooooooooooooooooooooooooooo",
"sAssssssAsssmssssssssssssssssssssspsmsssssssssssssssssssssssmssssssssssssAssssssssssmssssssssssAssssssssssssmsssssssssspssssssss",
"AAABAAAABAAAmBBBBCBBBBCBBBBCBBBBCBBBmCCCCDCCCCDCCCppCCCCDCCCmDDDDEDDDDEDDDDEDDDDEDDDmEEEEFEEEEFEEEEFpEEEpEEEmFFFFGFFFFGFFFFGFFFF",
"AAABpAAABAAAmppBBCBBBBCBBBBCBABBCBBBmCCCCDCCCCDBCCCDCCCCDCCCmDDDDEDDDDEpDDDEDDDDEDDDmEEEEFEEEEFEEEEFEEEEFEEEmFFFFFFFFFpFFFFFFFFF",
"AAABAAAABAAAmBBBBCBBBBCBBBBpBBBBCBBBmpCCCDCBCCDCCCpDCCCCDCCCmDDDDpDDDDEDDpDEDpDDEDDDmEEEEFEEEEFEEEEFEEEEFEEEmFFFFGFFFFGFFFFGFFFF",
"AAABAAAABAAAmBBBBCBBBBCBBBBCBBABCBBBmCCCCDCCCCDCCCCDCCCCDCCCmDDDDEDDDDEDDDDEDDDDEDDDmEEDDFEDEEEEEEEpEEEEFEEEmFFFFGFFFFGFEFFGFFFF",
"AAABAAAABAAAmBBBACBBBBCBBBACBBBBCBBBmCCCCDCCCCDCCCCDCCCCDCCpmDDDDEDDDDEDDDDEDDDDEDDDmEEEEFEEEEFEEEEFEEEEFDEEmFFFFGFFFFGFFEFGFFFF",
"AAABAAAABAAAmBBBBCBBBBCBBBBCBBBBCBBBmCCCCDCCCCDCCCCDCCCCDBCCmDDDDEDDDDEDDpDEDDDDEDDDmEEEEFEEEEFEEEEFEEEEFEEEmFFFFGFFpFGpFFFGFFFF",
"AAABApAABAAAmBBBBCBBBBBBBpBCBBBBCBBpmCCCCDCCCCpCCCCCCBCCDCCCmDDDDEDDDDECpDDEDDDDEDDDmEEEEFEEEEFEEEEFEEEEFEEEmFFFFGFFFFGFFFFGFFFF",
"AAABAAAABAAAmBBBBCBBBBCBBBBCBBBBCBBBmCBCCDCCCCDCCCCDCCCCDCCCmDDDDEDDDDEDDDDDDDDDEDDDmEEEEFEEEEFEDEEFEEEEFEEEmFFFFGFFFpGEpFFGFFFF",
"AAAAAAAAAhAAmBBhBBBBBBBBBBBBBBBBBhBBmCChCCCCChCCCCChCCCCCCCCmDDhDDDDDhDDDCDhDDDDDDDDmEEhEEEEEhEEEEEEEEEEEEEEmFFhFFFFFhFFFFphFFFF",
"AAAAAAAAAAAAmBBBBBBBBBBBBBBBBBBBBBBBmCCCCpCCCCCCCCCCCCCCCCCCmDDDDDDDDDDDDDDDDDDDDDDDmEEEEEEEEEEEEEEEEEEEEDEEmFFFpFFFFFFFFFFFFFFF",
"mmmmmmmmmmmmmmmmmmmmmmmmmmmmmmmmmmmmmmmmmmmmmmmmmmmmmmmmmmmmmmmmmmmmmmmmmmmmmmmmmmmmmmmmmmmmmmmmmmmmmmmmmmmmmmmmmmmmmmmmmmmmmmmm",
"msssssssssssssssssssssssmpsssssssssssssssssssssAmssssssssssssssAsssssAssmsssssssssssssssssssssssmsspssssssssssssssssssssmsssssss",
"mCCCCDCCCppCCCCDCCCCDCBBmDDDDEDDDDEDDDDEDDDDEDDDmEEEEFEEEEFEEEEFpEEEFEEEmFFFFGFFFFGFFFFGFFFFGFFFmGGGGHGpGGHGGGGHGGFGHGGGmHHHHHHH",
"mCCCCDCCCCDCCCCDCCCCDCCCmDDDDEDDDDEDDDDDDDDDEDDDmEEEEFEEEEFEEEEFEEEEFEEEmFFFFGFFFFGFFEFGFFFFGFFFmGGGGHpGGGHGGGGHGGGGHGGGmHHHHHHH",
"mCCCCDCpCCDCCCCDCCCCDCCCmDDDDEDDDDEDDDDEDDDDEDDDmEEEDFEEEEFEEEEFEDEEFEEEmFFFFGFFFFGFFFFGFFEFGpFFmGGGGHGGGGHGGGGHGGGGHGGGmHHHHHHH",
"mCCCCDCCCCDCBCCDCCCCDCCCmDDDDEDDDDEDDDDEDDDDEDDDmEEEEEEEEEFEEEEFEEEEFpEEmFFFFGFFFFGFFFFGFFEFGFFFmFGGGHGGGGHGGGGHGGGGHGGGmHHHHHHH",
"mCCCCDCCCCDCCCCDCCCCDCCCmDDDDEDDDDEDDDDEDDDDECDDmEEEEFEEEEEDEEEFEEEEFEEpmFFFFGFFFpGFFEFGFFpFGFFFmGGGGHGGGGHGGGGHFGGGHGGGmHHHHHpH",
"mBCCBDCCCCDCCCCDCCCCDCCCmDDDDEDDDDEDDDDEDDDDEDDDmEEEEFEEEEFEEEEFEEEEFEEEmFFFFGFFFFFFFFFGFFFFGFFFmGGGGHGGGGHGGGGHGGpGHGGGmHHHHHHH",
"mCCBCDCCCCDCCpCDCCBCDCCCmDCDDEDDCDEDDDDEDDDDEDDDmDEEDFEEEEFEEpEFEEEEpEEEmFFFFGFFFFGFFEFGFFFFGFFFmGGGGHGGGGHGGGGHGGGGHGGFmHHHGHHH",
"mCCCCDCCCCDCCCCDCCCCpCCCmDDDDEDDDDEDDDDEDDDDEDDDmEEEEFEEEEEEEEEFEEEEEEEEmFFFFGFpFpGFFFFGFFFFGFFFmGGGGHGGGGHGGGGHGGGGHGGGmHHHHHHH",
"mCCCCCCCCCCCCCChCCCCChCCmCDDDDDDDhDDDpDhDDDDDhDDmEEhEEEEEhEEEEEhEEpEEEpEmFFFFEFFFFFFFEFhFFFFFFFFmGGhGFGGGhGGGGGhGGGGpGGFmHHHHHHH",
"mCCCCpCCCCCCCCBCCCCCCCCCmDDDDDDDDDDDDDDDDDDDDDDDmEEEEEpEEpEEEEEEEEEEDEEEmFFFpFFFFFFFpFFFFFFFFFFFmGGGGGGGGGGGGGGGGGGGGGGGmHHHHHHH",
"nnnnnnnnnnnnnnnnnnnnnnnnnnnnnnnnnnnnnnnnnnnnnnnnnnnnnnnnnnnnnnnnnnnnnnnnnnnnnnnnnnnnnnnnnnnnnnnnnnnnnnnnnnnnnnnnnnnnnnnnnnnnnnnn",
"sssspsssssssmspsssAsssssssssssssssssmsssssssssssssssssssssssmsssssssssssssssssssssssmssssssssssssspsAsssssssmssssssssAssssssssss",
"CCCDCCCCCpCCmDDDDEDDDDEDDDDEDDDDEDDDmDEEEFEEEEFEEEEFEpEEFEEEmFFFpGFFFFGFFFFGFFpFGFFFmGGGGHGGGGHGGGGHGGGGHGGGmHHHHHHHHHHHHHHHHHHH",
"CCCDCCCCDCCBmDDDDEDDDDEDDDDEDDDDEDDDmEEEEFEEEEFEEDEFEEEDFEEEmFFFFGpFFFGFFFFGFFFFGFFFmGGGGHGGGGHGGGGHGGGGHGGGmHHHGHHHHHHHHGHHHHHH",
"CCCDCCCCDCCCmDDDDEDDDDEDDDDEDDpDEDDDmEEEEFEEEEFEEEEFDEEEFEEEmFFFFGFpFFGFFFFGFFFFGFFFmGGGGHGGGGHGGGGHGGGGHGGGmHHHHHHHHHHHHHHHHHHH",
"CCCDCCCCDCCCmDDDDEDDDDEDCDDEDDDDEDDDmEEEEFEEEEpEEEEFEEEEFpEEmFFFpGFFpFpFFFFGFFFFGEFFmGGGGHGGGFHGGGGHGGGGHGGGmHHHHHHHHHHGHHHHHHHH",
"CBCDCCCCDCCCmDDDDEDDDDEDDDDEDDDDEDDDmEEEEFEDEEFEEEEFpEEEFEEEmFFFFGFFFFGFFFFGFFFFGFFFmGGGGHGGGGpGGGGHGGGGHGGGmHHHpHHHHHHHHHHHHHHG",
"CCBDCBCCDCCCmDDDpECDDDEDDDDEDDDDEDCDmEEEEFEpEEEEEEEFEEEEFEEEmFFFFpFFFFGFFFFGFFFEGFFFmGGGGHGGGGHGFGGHGGGGHGGGmHHHHHHHHHHHHHHHHHHH",
"CCCDCCCCDCCCmDDDDEDDDDEDDDDEDDDDEDDDmEEEEFEEEEFEEEEFEEEEFEEEmFFFFGFFFFGFFFFGFFFFGFFFmGGGGHGGGGHGGGGHFGGFpGGGmHHHHHHHHHHHHHHHHHHp",
"pCCDpCCCDCCCmDDDDEDDCDEDDDDEDDDDEDDDmEEEEFEEEEFEEEEFEEDEFEEEmFFFFGFFpFFEFFFFFFFpGFFFmGGGGHGGGGHGGGGHGGpGHGGGmHHHHHHHHHHHHHHHHHGH",
"CCChCCCCCCpCmDDhCDCDDDDDDDDhDDDCDhDDmEEhEEEEEhEEDEEhEEEEphEEmFFhFFFFFFFFFFFhEFFFFFpFmGGhGGGGGhGGGGGGGGGGGhGGmHHhHHHHHHHHHHHhHHHH",
"CCCCCCBCCCpCmDDDDDDDDDDDDDDDDDDDDDDCmEEEEDEEpEEEEEEEEEpEEEEEmFFFFFFFFFFFFFFFFFFEFFFFmGGGGpGGGGGGGGGGGGGGGGFGmHHHpGHHHHHHHHHHHGHH",
"oooooooooooooooooooooooooooooooooooooooooooooooooooooooooooooooooooooooooooooooooooooooooooooooooooooooooooooooooooooooooooooooo",
"msssssspssssssssssssssssmsssssssssssssssssssssssmAsssssssssssssssssssAssmsssssssspssssssssssssssmssssssssssssssssssssspsmsssspss",
"mEEEEFEEEEFEEEEFEEEEFEEEmFFFFGFFFFGFFFFGFFFFGFFFmGGGGHGGGGGGGGGHGGGGHGGGmHHHHHHHHHHHHHHHHHpHHHHHmAAAABAAAABAAAABApAABAAAmBBBBCBB",
"mEEEEFEEEEFEEEEEEEEEFDEEmFFFFGFFFFGFFFFGFFFFGFFFmGGGGHGGGGHGGGGHGGFGHGGGmHHHHHHHHHHHHHHHHGHHHHHHmAAAABAAApBAAAABAAAABAAAmABBBCBB",
"mEEEEFEEDEFEEEEFEEEEFEEEmFFFFFFFFFGFFFFGFFFFGFFFmGGGGHGGGGHGGGGHGGGGHGGGmHHHHHHHHHHHHHHHHHHHHHHHmAAApBAAAABAAAABAAAABAAAmBBBBCBB",
"mEEEEFEEEEFEEEEFEEEEFEEEmFFFFGFFFFGFFFFGFFFFGFEFmGGGGHGGGGHGGGGHGGGGHGGGmHGHHHHHHHHHHHHHHHHHGHHHmAAAABAAAABAAAABAAAABAAAmpBBBCBB",
"mEDEEFEEEEFEEEEFDEEEppEEmFFFFGFpFFGpFFFGFFpFGFFFmGGGGHGGGGHGGGGHGGGGHpFGmHHHHHHHHHHHHHHHHpHHHGHHmAAAABAAAABAAAABAAAABAAAmBBBBCBB",
"mEEEEFEEDDpEEEEFEEDEFEEEmFpFFFFFFFGFFFFGFFFFGFFFmGpGGHGGFGHGGGGHGGGGHGGGmHHHHHHHHHHHHHGHHHpHHGHHmAAAABAAAABAAAABAApABAAAmBBBBCBB",
"mEEEEFEEEEFEEEEFEEEEFEDEmFFFFGFFFFGFFFFGFFFFGFFFmGGGGHpGGGpGGGGHGGGGHGGGmHHHHHHHHHHHHHHHHHGHHHHHmAAAABAAAABAAAABAAAABAAAmBBBBCBB",
"mEEEEFEEEEFEEEEFEEEEFDEEmFFFFGFFFFGFFFFGFFFFFFFFmGGGGHGGGFHGGGGHGGGGHGGGmHHHHHHHHHHHHHHHHHHHHHpHmAAAABAAAABApApBAAAABAAAmBBBBCBB",
"mEEhEEEEEEEEEEEEEEEEEhEEmFFhFFFFFFFFFFFEFFFFFhFFmGGhGGGGGGGGGFGhGGGGGhGGmGHhHHHHHHHHHHHhHpHHHhHHmAAhAAAAAAAAAAAhAAAAAhAAmBBhBBBB",
"mEEEEEEEEEEEEEEEEEEEEEEEmFFFFFFpFFFFFFFFFFFFFFFFmGGGGGGGGGGGGGGGGGGGGGGGmHHHHHHHHHHHHHHHHHHHHHHHmAAAAAAAAAAAAAAAAAAAAAAAmBBBBpBB",
"mmmmmmmmmmmmmmmmmmmmmmmmmmmmmmmmmmmmmmmmmmmmmmmmmmmmmmmmmmmmmmmmmmmmmmmmmmmmmmmmmmmmmmmmmmmmmmmmmmmmmmmmmmmmmmmmmmmmmmmmmmmmmmmm",
"ssssssssssssmpsssssssssssssssAssssssmssAsssssssssAssssssspssmssssssssAssssssssssssssmsssssssssssssssssssssssmsssssssssssssssssss",
"EEEFEEEDFEEEmFFFFGFFpFGFFFFGFFFFGFFEmGGGGHGGGGHGGGGHGGGGHGGGmHHHHHHHHHHHHHHHHHHHHHHHmAAAABAAAABAAAABAAAABAAAmBpBBCBBBBCBBBBCBBBB",
"EEEFEEEEFEEEmpFFFGFFFFGFFFEFFFFFGFFFmGGGGHGGGGHGGGGHGGGGHGGGmHHHHHHHHHHHHHHHHHHHHHHGmAAAApAAAABAAAABAAAABAAAmBBBACBBABCBBBBCBApB",
"EEEFDEEEFEEEmFFFpGFFFFGFFFFGFFEFGFEFmGGFGHGGGGHGGGGHGGGGHGGGmHGHHHHHHHHHHHHHHpHHHHHHmAAAABAAApBAAAABAAApBAAAmBBBBCBBBACBBAACBBBB",
"EEDFEEEEFEEEmFEFFGFFFFFFFFFGFFFFGFFFmGGGGHGGGGHGGGGHGGGGHGGpmHHHHHHHHHHHHHHHHHHpHHHHmAAAABAAAABAAAABAAApBAAAmBBBBCBBBBCBBBBBBBBB",
"EEEFDEEEFEEEmEFFFGFFFFGFFFFGFFFFGFFFmGGGGHGGGGHGGFGHGGGFHGGGmHHHHHHHHHHHHHHHHHHHHHHHmAAAABAAAABAAAABAAAABAAAmBBBBCpBBBCBBBBCBBBB",
"EEEFpEEEFEDEmFFFFGFFFFGFFFFGFFFFGFFFmGGGGGGGGGHGGGGHGGGGHGGGmHHHHHHHHHHHHHHHHGHHHHHHmAAAABAAAABAAAABAAAApAAAmBBBBCBBBBCBBBBCBBBB",
"EEEFEEEEFpEEmFFFFGFFFFGFFFFGFFFFGFFFmGGGGHGGGGHGGGGHGGGGHGGGmHHHGHpHHHHHHHHHHHHHHHHHmAAAABAAAABAAAABAAAABAAAmBBBBCBBBBCBBBBCABBB",
"EEEFEEEEFEEEmFFFFGFFFFGFFFFGFFFFGFFpmGGGGHGGGGHGGpGHGGGpHGGGmHHHHHHHHHHHHHHHHGHHHHHHmAAAABAAAABAAAABpAAABAAAmBBABCBBBBCBBBBCBpBB",
"EEEhEEEEEEEEmFFhFFFFFEFFFFFhFFFFFEFFmGGhGGGGGhGGGGGGGGGGGhGGmHHhHHHHphHHHHHhHHHHHHHHmAAhAAAAAhAAAAAAAAAAAhpAmBBhBBBBBhBBBBBhBBBB",
"EDEpDEEEEEEEmFFFFEFFFEFFEFFFFFFFFFFFmGGGGGGGGGGGGGGGGGGGGpGGmHHHHHHHHHGHHHHHHHHHHHHHmAAAAAAAAAAAAAAAAAAAAAAAmBBBBBBBBBBBBBBBBBAB",
"nnnnnnnnnnnnnnnnnnnnnnnnnnnnnnnnnnnnnnnnnnnnnnnnnnnnnnnnnnnnnnnnnnnnnnnnnnnnnnnnnnnnnnnnnnnnnnnnnnnnnnnnnnnnnnnnnnnnnnnnnnnnnnnn",
"msssssssssssssssAsssssssmAsspsssssssssssssssssssmsssssssssssssssssssssssmsssssssssssssssssssssssmssssAssssssspssssssssssmsssssss",
"mGGGGHGGGGHGGGGHGGGGHGGGmHHHHHHpHHHHHpHHHHHHHHHHmAAAABAAAABAAAABAAAABAAAmBBpBCBBBBCBBBBCBBBBBBBBmCCCCDCBCCDCCCCDCCCCDCCCmDDDDEDD",
"mGGGGHGGGGHGGFGHGGGGHGGGmHHHHHHHHHHHHHHpHHHHHHHHmAAAABAAAABAAAABAAAABAAAmBBBBCBBBBCBBBBCBBBBCBBBmCCCCDCCCCDCCCCDCCCCDCCCmDDDDEDD",
"mGGGGHGGGGpGGGGHGGFGHGGGmHHHHHHHGHHHHpHHHHHHGHHHmAAAABAAAABAAAABAAAABAAAmBBBBCBBBBCBBBBCBBBBCBBBmCpCCDCCCCDCCCCDCpCCDCCCmDDDDECD",
"mGGGGHGGGGHGGGGHGGGGHGGGmHHHHHHHHHHHHHHHHHHHHHHHmAAAABAAAABAAAABAAAABAAAmBABBCBBBBCBBBBCBBBBCBBBmCCCCDCCCCDCCCCDCCCCDCBCmDCDDEDD",
"mGGGGHGGGGHGGGGHGpGGHGpGmHHHHHHHHHHHHHHHHHHHHHHHmAAAABAAAABAAAABAAAABAAAmBBBBpBBBBCBBBBCABBBCBBBmCCCCDCCCCDCCCCDCCCCDCCCmDDDDEDD",
"mGGGGHGGGGpGGGGHGGGGGGGGmHHHHHHHHGHHHHHHHHHHHHHGmAAAABAAAABAAAABAAAABAAAmBBBBCBBBBCBBBBCBBBBCBBBmCCCCpCCCCDCCCCDCCCCDCCCmDDDDEDD",
"mGFGGHGGGGHGGGFpGGGGHGGGmHHHHHHHHHHHHHHHHpHHHHHHmAApAAAAApBAAAABAAAABpAAmBBBBCBBBBCBBBBCBBBBCBBBmCCCCDCCCCDCCCCDCCCCDpCCmDDDDEDD",
"mGFGFHGGGpGFGGGHGGGGHGGGmHHHHHHHHHHHHHHHHHHHHHGHmAAAABAAAABAAAABAAAABAAAmABBBCBpBBCBBBBCBAABCBBBmCCCCDCCCCDCCCCDCCCCDCpCmDDDDEDD",
"mGGhGGGGGhGGGGphGGGGGGGGmHGhGHHHHhHHHHHhHHHHphHHmAApAAAAAhAAAAAhAAAAApAAmBBhBBBBBBBBBBBBBBBBBhBBmCCCCCCCCCCCCCCCCCCCCCCCmDDDDDDD",
"mGGGGGGGGGGGGGGGGGGFGGGGmHHHHHHpHHHHHHHHHHHHHHHHmAAAAAAAAAAAAAAAAAAAAAAAmBBBBBBBBBBBBBBBBBBBBBBBmCCCCCCCCCCCCCCCCCCpCCCBmDDDDDDD",
"oooooooooooooooooooooooooooooooooooooooooooooooooooooooooooooooooooooooooooooooooooooooooooooooooooooooooooooooooooooooooooooooo",
"sssssssssAssmsssssssAsssssssssspssssmssssssspsssssssssssssssmsssssssssssssssssssssssmsssssssssssssssssssssssmsssssssssssssssssss",
"GGGHGGGGHGGGmHHHHHHHHHHHHHHHHHHHpHHHmAAAABAAAABAAAApAAAABAAAmBBBACBBBBCABBBCBBBBCBBBmCCCCDCCCCDCCCCDCBCCDpCCmDDDDEDDDDEDDDDEDDDD",
"GGGGGGGGHGGGmHHHHGHHHHHHHHHHHHHHHHHHmAAAABAAAABAAAABAAAABAAAmBBBBCBBBBCBBBBCBBBBCBBBmCCCCDCCCCDCCCCDCCCCDCCBmDDDDEDDDDEDDDDEDDDD",
"GGGHGGGGHGGGmHHHGHHHHHHHHGHHHHHHHpHHmAAAABAAAABAAAABAAAABAAAmBBBBCBBBBCBBpBCBBBBCBpBmCCCCDCCCCDCCCCDCCCCDCCCmDDDDEDDDDEDDDDECDDD",
"GGGHGGGGHGGGmHHHHHHHHHHHHHHHHHHHHHHHmpAAABAAApBAAAABAAAABAAAmBBBBCBABBCBBBBCBBBBCBBBmCBCCDCCCCDpCCCDCCCCDCCCmDDDDEDDDDEDDDDEDDDD",
"GGGHGGGGHGGGmHHHHpHHHHHHHHHHHGHHHHHHmAAAABAAAABAAAABAAAABAAAmBBBBCBBBBCBBBBCBBBACBBBmCCBCDCCCCDCCCCDCCCCDCCCmDDDDEDDDDEDDDDEDDDD",
"GpGHGGGGHGGGmHHHHHHHHHHHHHHHHHHHHHHHmAAAABAAAABAAAABAAAABAAAmBBApCABBBCBBBpCBBBBCBBBmCBCCDCCCCDCCCCDCpCCDCCCmDDDDEDDDDEDDDDEDDDD",
"GGGHGGGpHGGGmHHGHHpHHHpHHHHHHpHHHHHHmAAApBAAAABAAAABAAAABAAAmBpBBCBBBBCBBBBCBBBBCBBBmCCCCDCCCCDCpCCDCCCCDCCCmDDDDECDDCEDDDDEDDDD",
"GGGHGGGGHFGGmHHHHHHHHHHHHHHHHHHHHHHHmApAAAAAAABAAAABAAAABAAAmBBABCBBBBCBBBBCBBBBBBBBmCCCCDCCCCDCCCCDCCCCDCCCmDDDDEDDDDEDDDDEDDDD",
"GGGhGGGGGGGGmHHHHHHHHhHHHHHHHHHHHHHHmAAhAAAAAhAAAAAAAAAAAhAAmBBBBBBBBBBBBBBBBBBBBhBBmCChCCCCChCCCCChCCCCChCCmDDhDDDDDhDDDDDhDDDD",
"GGGGGGGGGGGFmHHHGGHHHHHHHHHHHHHHGHHHmAAAAAAAAAAAAAAAAAAAAApAmBBBBBBBBBBBBBBBBBBBBBBBmCCCCCCCCCCCCCCCCCCCCCCCmDDDDDDDDDDDDDDCDDDD",
"mmmmmmmmmmmmmmmmmmmmmmmmmmmmmmmmmmmmmmmmmmmmmmmmmmmmmmmmmmmmmmmmmmmmmmmmmmmmmmmmmmmmmmmmmmmmmmmmmmmmmmmmmmmmmmmmmmmmmmmmmmmmmmmm",
"msssssssssssssssssssssssmsssssssssssssAsssspssssmsspssssssssssssssssssssmsssssssspssssssssssssssmssssssssssspsssssssssssmsssssss",
"mAAAABAAAABAAAABAAAABAAAmBBBBCBBBBCBBBBCBBBBCBBBmCCCCDCCCBDCBCCDCCCCDCBCmDDCDEDDDDEDDDDEDDDDEDDDmEEEEEpEEEFEDEEFEEEEFEEEmFFFFGFF",
"mApAABAAAABAAAABAAAABAAAmBBBBCBBBBCBpBBCBBBBCABBmCCCCDBCCCDCCCCDpCCCDCCCmDDCDDDDDDEDDDDEDDDDEDDDmEEEEFEEEEpEEEEFEEEEFEEEmFFFFGFF",
"mAAAABAAAABAAAABAAAApAAAmBBBBCBBBBCApBBCBBBBCBBBmCCCCDCCBCDCCCCDCCCCDpCCmDDDDEDDDDEDDDDDDDDDEDDDmEEEEFEEEEFEEEEFEEEDFEEEmFFFFGFF",
"mAAAABAAAABAAAABAAAABAAAmBBBBCBBBBCBBBBBBBBBCABBmCCCCDCCCCDCCCCDCpCCDpCCmDDDDEDDDDEDDDDEDDDDEDDDmEEEDFEEEEFEEEEFEEEEFppEmFFFFGFF",
"mAAAABAAAABAAAABAAAABAAAmBBBBpBBBBCBBBBBBBBBCBBBmCCCCDCCCCDCCCCDCCCCDCCCmDDDDEDDDDEDDDDEDDDDECDDmEEEEFEEEEFEEEEFEEDEFEEEmFFFFGFE",
"mAAAABAAAABApAABAAAABAAAmBBBBCBBBBCBBBpCBBBBCBBBmCCCCDCCCCDpCCCDCCCCDCCpmCDCDEDDDDEDDDDEDDDDEDDDmEEEEFEEEEFEEEEFEEEEFEEEmFFFFGFF",
"mpAAABAAAABAAAABAAAAAAAAmBBBBCpBBBCBBBBCBBBBCBBBmCCCCDCCCCDCCCCDCCCCDCCCmDDpDEDDDDEDDDDEDDDDEDDDmEEEEFEEEEFEEEEFEEEEFEEEmFFFFGFF",
"mAAAABAAAABAAAABAAAABApAmBBBBCBBBBBBBBBCBBBBCBBBmCCCCDCCCCDCCCCDCCCCDCCCmDDDDECDDDEDDDDEDDpDEDDDmEEEEFEEEEFEEEDFEEEEEDEEmFFFFGFF",
"mAAhAAAAAhAAAAAhAAAAAhAAmBBhBBBBBABBBBBBBBBBBhBBmCChBCCCCCCBCCCCCCCBChCCmDDhDpDDDDDDDDDhDDDDDhDDmEEhEEEEEEEDDEEhEEEEEEEEmFEFFFFF",
"mAAAAAAAAAAAAAAAAAAAAAAAmBBBBBBBBBBBBBBBBBABBBBBmCCCCCCCCCCCCCCCCCCCCCCCmDDDDDDDCDDDDDDDDDDCDDDDmEEEEEEEEEEEEEEEEEpEEEEEmFFpFFFF",
"nnnnnnnnnnnnnnnnnnnnnnnnnnnnnnnnnnnnnnnnnnnnnnnnnnnnnnnnnnnnnnnnnnnnnnnnnnnnnnnnnnnnnnnnnnnnnnnnnnnnnnnnnnnnnnnnnnnnnnnnnnnnnnnn",
"ssssssssssssmssssssssAssssssssssssssmsssssssspsssssssssssspsmssspssssssspsssssssssssmssssssssAssssssssssssssmsssssssssssssssspss",
"AAABAAAABAAAmBBBpCBBBBCBBpBCBBBBCBBBmCCCCDCCCCDCCCCDCpCCDBCCmDDDDDDCDDEDDDDEDDDDEDDDmEpEEFEEEEFEEEEFEEEEFEEEmFFFFGFFFFGFFFFGFFFF",
"AAABAAAABAAAmBBBBCBBBBCBBBBCBBBBCBBAmCCCCDCCCCDCpCBDCCCCDCCCmCDDDEDpDDEDDDDEDDDDEDDDmEEEEFEEEEFEpEEFEEEEFEEEmFFFFGFFFFGFFFFGFFFF",
"AAABAAAABAAAmBBBBCBBBBCBBBACBBBBpBBBmCCCCDCCCCDCCCCDCCBCDCCCmDDDDEDDDDEDDDDEDDDDEDDDmEEEEFEEEEFEEEEFEEEEFEEEmFpFFGFFFFGFFFFGFFFF",
"AAABAAAABAAAmBBBBCBBBBCBBBBCBBBBCBBBmCCCBDCCCCDCCCCDCCCCDCCCmDDDDEDDCDEDCDDEDCDDDDDDmEEEEFEEEEFEEEEFEEEEFEEpmFFFFGFFFFGFFFFGFFFF",
"AAABAAAABAAAmBBBBCBBBBCBBpBCBABBCBBBmCCCCDCCCCDCCCpDCCCCDCCCmDDDDEDDDDEDDDDEDDDDDDDDmEEEEFEEEDFEEDEFEEEEFEEEmFFFFGFFFFGFFFFGFEFF",
"AAABAAAABAAAmBBBBCBBBBCBBBBCBpBBCBBBmCCCCDCCCCDCBCCDCCCpDCCCmDDDDEDDDDEDDDDEDDDCEDDDmEEEEFEEEEFEEEEFEEEEFEEEmEpFFGFFFFGFFFFGFFFF",
"AAABAAAABAAAmBBBBCBBBBCBBBBpBBBBCABBmCCCCDCCCCDCCCCDCCCCDCCCmDDDDEDpDDEDDDDEDDCDEDDDmEEEEFEEEEFEEEDFEEEEFEEEmFFFFGFFpFGFFFFFFEFF",
"AAABAAAABAAAmBBBBCBBBBCBBBBCBBBBCBBBmCCCCDCCCCDCCBCDCCCCDCCCmDCDDEDDDDEDDDDEDDDDEDDDmEEEEFEEEEFEEEEFpEpEFEEDmFFFFGFEFFGFFFFGFFFF",
"AAAhAAAAAhAAmBBBBBBBBhBBBBBhBBBBBhBBmCCCCCCCChCCCCChCCCCChCCmDDhDDDDDDDDDDDhDDDDDhDDmEEEEEEEDEEEEEEhEEEEEEEEmFFFFFFFFpFFFFFFFFFE",
"AAAAAAAAAAAAmBpBBBBBBBBBBBBBBBBBBBBBmCCCCCCCCCBCCCCCCCCCCCCCmDDDDDDDDDDDDCDDDDDDDDDDmEEEEEEEEEEEEEEEEEEEEEEEmFFFFFFFFFFFFFFFFFFF",
"oooooooooooooooooooooooooooooooooooooooooooooooooooooooooooooooooooooooooooooooooooooooooooooooooooooooooooooooooooooooooooooooo",
"msssssssAsssssssssssssssmsssssssssssssssssssssssmssssssssspsssssssssssssmAsAsssssssssssssssAssssmssspsssssssssssssssssssmsssssss",
"mCCCCDCCCCDCCCCDCCCCDCCCmDDDDEDDDDEDDDDEDDDDEDDDmEEDEFEEEEFEEEEFEEEEFEpEmFFFFGFFFFGFFFEGFFFFFFFFmGGGGHGGGGHGGGGHGGGGHGGGmHHHHHHH",
"mCCCCDCCCCDCCCCDCCBCDCCCmDDDDEDDDDEDDDDEDDDDEDDDmEEEEFDEEEFEEEEFEEEEFEEEmFFEFGFFFFGFFFFGFFFFGFFFmFGGGHGGGGHGGGGHGGGGHGGGmHHHHHHH",
"mCCCCDCpCCDCCCCDCCCCDCCCmDDDDEDDDDEDDDDEDDDDEDDDmEDEEFEEEEEEEEEFEEEEFEEEmFFFFGFEpFGFFFFGFFFFGFFFmGFGGHGGGGHGGGGHGGGGHGGGmHHHHHHH",
"mCCCBDCCCCDCCCCDCCCCDCCCmDDDDECDDDEDDDDEDDDDEDDDmEEEEFEEEEFpEEEFEEEEFEEEmFFFFGFFFFGFFFFGFFFFpFFFmGGGGHGGGGHGGGGHFGGGHGGGmHHHHHHH",
"mCCCCDCCCCDCCCCDCCCCDCBCmDDDDEDDDDDDDDpEDDDDEDpDmEEEEFEEEEFEEEEFEEEEFEEEmFEFFGFFpFGFEFFGFFFFGFFFmGGGGHGGGGHGGGGHGpFGHGGGmHHHHHHG",
"mCCBCDCCCCDCCCBDCCCCDCBCmDDDDEDDDDEDDDDEDDCDEDDDmEEEEFEEEEFEEEEFEEEEFEEEmFFFFGFFFFGFFFFFFFFFFFFEmGGGGHGGGGHGGGGHGGGGGGGGmHHHHHHp",
""};
